<svg width="327" height="59" viewBox="0 0 327 59" fill="none" xmlns="http://www.w3.org/2000/svg">
<path d="M4.953 28L0 1.168H9.048L11.31 18.016H11.739L14.625 1.168H23.985L26.949 18.016H27.378L29.328 1.168H38.415L33.462 28H21.957L19.422 14.467H18.993L16.458 28H4.953ZM46.7747 28V19.342L38.3117 1.168H47.5937L51.2987 11.152H51.5717L55.2767 1.168H64.3637L55.9007 19.342V28H46.7747ZM76.1597 28.312C75.0417 28.312 73.8457 28.273 72.5717 28.195C71.2977 28.143 70.0627 28.065 68.8667 27.961C67.6707 27.857 66.6307 27.74 65.7467 27.61V21.409C66.7087 21.487 67.6447 21.565 68.5547 21.643C69.4907 21.695 70.3617 21.734 71.1677 21.76C71.9997 21.786 72.7017 21.799 73.2737 21.799C74.3137 21.799 75.0937 21.786 75.6137 21.76C76.1337 21.708 76.4847 21.617 76.6667 21.487C76.7967 21.383 76.8877 21.266 76.9397 21.136C76.9917 21.006 77.0177 20.85 77.0177 20.668C77.0437 20.486 77.0567 20.278 77.0567 20.044C77.0567 19.654 77.0177 19.355 76.9397 19.147C76.8617 18.939 76.7057 18.783 76.4717 18.679C76.2377 18.549 75.8867 18.445 75.4187 18.367C74.9507 18.289 74.3267 18.198 73.5467 18.094L68.9837 17.509C68.1777 17.405 67.5147 17.145 66.9947 16.729C66.4747 16.287 66.0587 15.715 65.7467 15.013C65.4607 14.285 65.2527 13.427 65.1227 12.439C65.0187 11.425 64.9667 10.307 64.9667 9.085C64.9667 7.317 65.2397 5.9 65.7857 4.834C66.3317 3.742 67.0857 2.91 68.0477 2.338C69.0357 1.766 70.1667 1.376 71.4407 1.168C72.7147 0.959999 74.0927 0.855998 75.5747 0.855998C76.6667 0.855998 77.7847 0.894999 78.9287 0.972999C80.0987 1.051 81.1907 1.155 82.2047 1.285C83.2447 1.389 84.1027 1.519 84.7787 1.675V7.798C84.1287 7.72 83.3487 7.655 82.4387 7.603C81.5547 7.525 80.6447 7.473 79.7087 7.447C78.7727 7.395 77.8887 7.369 77.0567 7.369C76.4327 7.369 75.9257 7.382 75.5357 7.408C75.1457 7.434 74.8467 7.512 74.6387 7.642C74.4307 7.772 74.2747 7.941 74.1707 8.149C74.0927 8.331 74.0537 8.565 74.0537 8.851C74.0537 9.293 74.0927 9.631 74.1707 9.865C74.2487 10.099 74.4437 10.268 74.7557 10.372C75.0677 10.45 75.5617 10.541 76.2377 10.645L80.3327 11.152C81.0087 11.23 81.6457 11.36 82.2437 11.542C82.8417 11.724 83.4007 12.01 83.9207 12.4C84.4407 12.764 84.8957 13.323 85.2857 14.077C85.4677 14.389 85.6107 14.792 85.7147 15.286C85.8447 15.78 85.9487 16.365 86.0267 17.041C86.1047 17.691 86.1437 18.445 86.1437 19.303C86.1437 20.941 85.9747 22.306 85.6367 23.398C85.3247 24.49 84.8567 25.361 84.2327 26.011C83.6347 26.661 82.9197 27.155 82.0877 27.493C81.2557 27.831 80.3327 28.052 79.3187 28.156C78.3307 28.26 77.2777 28.312 76.1597 28.312ZM95.7913 28V19.342L87.3283 1.168H96.6103L100.315 11.152H100.588L104.293 1.168H113.38L104.917 19.342V28H95.7913ZM113.229 19.03V13.492L129.18 7.681V13.219L113.229 19.03ZM115.257 28V1.168H124.383V21.136H133.353V28H115.257ZM133.867 28L141.317 1.168H153.992L161.441 28H152.393L151.418 23.983H143.657L142.721 28H133.867ZM145.139 17.743H149.897L147.674 8.5H147.323L145.139 17.743ZM161.958 28V21.838C163.232 21.838 164.22 21.812 164.922 21.76C165.65 21.682 166.17 21.5 166.482 21.214C166.82 20.928 167.028 20.486 167.106 19.888C167.184 19.29 167.223 18.471 167.223 17.431V1.168H176.349V15.208C176.349 17.652 176.284 19.68 176.154 21.292C176.024 22.878 175.725 24.126 175.257 25.036C174.789 25.946 174.035 26.609 172.995 27.025C171.981 27.441 170.577 27.714 168.783 27.844C167.015 27.948 164.74 28 161.958 28ZM190.629 28V1.168H204.396C206.19 1.168 207.62 1.363 208.686 1.753C209.778 2.117 210.61 2.689 211.182 3.469C211.754 4.249 212.131 5.224 212.313 6.394C212.521 7.564 212.625 8.942 212.625 10.528C212.625 11.958 212.534 13.245 212.352 14.389C212.196 15.533 211.845 16.521 211.299 17.353C210.753 18.159 209.921 18.783 208.803 19.225C207.711 19.641 206.242 19.849 204.396 19.849H199.755V28H190.629ZM199.755 13.492H200.964C201.536 13.492 201.978 13.466 202.29 13.414C202.628 13.362 202.875 13.245 203.031 13.063C203.213 12.855 203.33 12.556 203.382 12.166C203.434 11.776 203.46 11.23 203.46 10.528C203.46 9.826 203.434 9.267 203.382 8.851C203.33 8.435 203.213 8.136 203.031 7.954C202.875 7.772 202.628 7.655 202.29 7.603C201.978 7.551 201.536 7.525 200.964 7.525H199.755V13.492ZM212.058 28L219.507 1.168H232.182L239.631 28H230.583L229.608 23.983H221.847L220.911 28H212.058ZM223.329 17.743H228.087L225.864 8.5H225.513L223.329 17.743ZM252.784 28.312C250.704 28.312 248.962 28.169 247.558 27.883C246.154 27.597 245.01 27.142 244.126 26.518C243.268 25.868 242.618 25.023 242.176 23.983C241.76 22.917 241.474 21.617 241.318 20.083C241.162 18.523 241.084 16.69 241.084 14.584C241.084 12.478 241.162 10.658 241.318 9.124C241.474 7.564 241.76 6.264 242.176 5.224C242.618 4.158 243.268 3.313 244.126 2.689C245.01 2.039 246.154 1.571 247.558 1.285C248.962 0.998998 250.704 0.855998 252.784 0.855998C253.616 0.855998 254.474 0.894999 255.358 0.972999C256.242 1.025 257.087 1.103 257.893 1.207C258.725 1.311 259.44 1.441 260.038 1.597V7.681C258.998 7.603 258.14 7.538 257.464 7.486C256.814 7.434 256.294 7.408 255.904 7.408C255.514 7.382 255.189 7.369 254.929 7.369C253.993 7.369 253.226 7.408 252.628 7.486C252.056 7.564 251.601 7.746 251.263 8.032C250.925 8.292 250.678 8.682 250.522 9.202C250.392 9.722 250.314 10.424 250.288 11.308C250.262 12.166 250.249 13.258 250.249 14.584C250.249 15.91 250.262 17.015 250.288 17.899C250.314 18.757 250.392 19.459 250.522 20.005C250.678 20.525 250.925 20.915 251.263 21.175C251.601 21.435 252.056 21.604 252.628 21.682C253.226 21.76 253.993 21.799 254.929 21.799C255.709 21.799 256.593 21.773 257.581 21.721C258.569 21.669 259.44 21.591 260.194 21.487V27.688C259.622 27.792 258.907 27.896 258.049 28C257.217 28.104 256.346 28.182 255.436 28.234C254.526 28.286 253.642 28.312 252.784 28.312ZM263.056 28V21.721L273.196 7.681H263.485V1.168H284.272V7.252L273.976 21.487H284.233V28H263.056ZM287.748 28V1.168H296.874V11.191H297.264L303.075 1.168H312.786L304.713 13.765L312.903 28H302.958L297.264 17.548H296.874V28H287.748ZM314.903 28V1.168H324.029V28H314.903Z" fill="#1D1D1D"/>
<path d="M12.24 58.256C11.3227 58.256 10.3413 58.224 9.296 58.16C8.25067 58.1173 7.23733 58.0533 6.256 57.968C5.27467 57.8827 4.42133 57.7867 3.696 57.68V52.592C4.48533 52.656 5.25333 52.72 6 52.784C6.768 52.8267 7.48267 52.8587 8.144 52.88C8.82667 52.9013 9.40267 52.912 9.872 52.912C10.7253 52.912 11.3653 52.9013 11.792 52.88C12.2187 52.8373 12.5067 52.7627 12.656 52.656C12.7627 52.5707 12.8373 52.4747 12.88 52.368C12.9227 52.2613 12.944 52.1333 12.944 51.984C12.9653 51.8347 12.976 51.664 12.976 51.472C12.976 51.152 12.944 50.9067 12.88 50.736C12.816 50.5653 12.688 50.4373 12.496 50.352C12.304 50.2453 12.016 50.16 11.632 50.096C11.248 50.032 10.736 49.9573 10.096 49.872L6.352 49.392C5.69067 49.3067 5.14667 49.0933 4.72 48.752C4.29333 48.3893 3.952 47.92 3.696 47.344C3.46133 46.7467 3.29067 46.0427 3.184 45.232C3.09867 44.4 3.056 43.4827 3.056 42.48C3.056 41.0293 3.28 39.8667 3.728 38.992C4.176 38.096 4.79467 37.4133 5.584 36.944C6.39467 36.4747 7.32267 36.1547 8.368 35.984C9.41333 35.8133 10.544 35.728 11.76 35.728C12.656 35.728 13.5733 35.76 14.512 35.824C15.472 35.888 16.368 35.9733 17.2 36.08C18.0533 36.1653 18.7573 36.272 19.312 36.4V41.424C18.7787 41.36 18.1387 41.3067 17.392 41.264C16.6667 41.2 15.92 41.1573 15.152 41.136C14.384 41.0933 13.6587 41.072 12.976 41.072C12.464 41.072 12.048 41.0827 11.728 41.104C11.408 41.1253 11.1627 41.1893 10.992 41.296C10.8213 41.4027 10.6933 41.5413 10.608 41.712C10.544 41.8613 10.512 42.0533 10.512 42.288C10.512 42.6507 10.544 42.928 10.608 43.12C10.672 43.312 10.832 43.4507 11.088 43.536C11.344 43.6 11.7493 43.6747 12.304 43.76L15.664 44.176C16.2187 44.24 16.7413 44.3467 17.232 44.496C17.7227 44.6453 18.1813 44.88 18.608 45.2C19.0347 45.4987 19.408 45.9573 19.728 46.576C19.8773 46.832 19.9947 47.1627 20.08 47.568C20.1867 47.9733 20.272 48.4533 20.336 49.008C20.4 49.5413 20.432 50.16 20.432 50.864C20.432 52.208 20.2933 53.328 20.016 54.224C19.76 55.12 19.376 55.8347 18.864 56.368C18.3733 56.9013 17.7867 57.3067 17.104 57.584C16.4213 57.8613 15.664 58.0427 14.832 58.128C14.0213 58.2133 13.1573 58.256 12.24 58.256ZM22.716 58V52.848L31.036 41.328H23.068V35.984H40.124V40.976L31.676 52.656H40.092V58H22.716ZM48.1918 58V50.896L41.2477 35.984H48.8638L51.9038 44.176H52.1278L55.1678 35.984H62.6238L55.6798 50.896V58H48.1918ZM64.1633 58V35.984H75.9393C77.2833 35.984 78.4353 36.176 79.3953 36.56C80.3766 36.944 81.1233 37.5413 81.6353 38.352C82.1473 39.1627 82.4033 40.2187 82.4033 41.52C82.4033 42.5867 82.2539 43.472 81.9553 44.176C81.6779 44.8587 81.2406 45.4027 80.6433 45.808C80.0673 46.192 79.3419 46.4907 78.4673 46.704V46.832C79.2993 47.024 80.0139 47.3013 80.6112 47.664C81.2086 48.0053 81.6673 48.528 81.9873 49.232C82.3073 49.9147 82.4673 50.8747 82.4673 52.112C82.4673 53.0933 82.3393 53.9573 82.0833 54.704C81.8273 55.4293 81.4326 56.0373 80.8993 56.528C80.3659 57.0187 79.6833 57.392 78.8513 57.648C78.0193 57.8827 77.0273 58 75.8753 58H64.1633ZM71.5233 52.848H73.0593C73.6353 52.848 74.0619 52.816 74.3393 52.752C74.6166 52.6667 74.7873 52.496 74.8513 52.24C74.9366 51.9627 74.9793 51.5467 74.9793 50.992C74.9793 50.416 74.9366 50 74.8513 49.744C74.7873 49.4667 74.6166 49.2853 74.3393 49.2C74.0619 49.1147 73.6353 49.072 73.0593 49.072H71.5233V52.848ZM71.5233 44.688H73.0593C73.6353 44.688 74.0619 44.656 74.3393 44.592C74.6166 44.5067 74.7873 44.336 74.8513 44.08C74.9366 43.824 74.9793 43.44 74.9793 42.928C74.9793 42.3733 74.9366 41.9787 74.8513 41.744C74.7873 41.488 74.6166 41.328 74.3393 41.264C74.0619 41.1787 73.6353 41.136 73.0593 41.136H71.5233V44.688ZM85.2883 58V35.984H92.7763V44.208H93.0963L97.8643 35.984H105.832L99.2083 46.32L105.928 58H97.7683L93.0963 49.424H92.7763V58H85.2883ZM116.417 58.256C114.475 58.256 112.886 58.1387 111.649 57.904C110.433 57.6693 109.483 57.296 108.801 56.784C108.118 56.272 107.617 55.5787 107.297 54.704C106.998 53.8293 106.817 52.7627 106.753 51.504C106.689 50.224 106.657 48.72 106.657 46.992C106.657 45.264 106.689 43.7707 106.753 42.512C106.817 41.232 106.998 40.1547 107.297 39.28C107.617 38.4053 108.118 37.712 108.801 37.2C109.483 36.688 110.433 36.3147 111.649 36.08C112.886 35.8453 114.475 35.728 116.417 35.728C118.358 35.728 119.937 35.8453 121.153 36.08C122.39 36.3147 123.35 36.688 124.033 37.2C124.737 37.712 125.238 38.4053 125.537 39.28C125.835 40.1547 126.017 41.232 126.081 42.512C126.166 43.7707 126.209 45.264 126.209 46.992C126.209 48.72 126.166 50.224 126.081 51.504C126.017 52.7627 125.835 53.8293 125.537 54.704C125.238 55.5787 124.737 56.272 124.033 56.784C123.35 57.296 122.39 57.6693 121.153 57.904C119.937 58.1387 118.358 58.256 116.417 58.256ZM116.417 52.912C116.865 52.912 117.227 52.8907 117.505 52.848C117.803 52.8053 118.027 52.688 118.177 52.496C118.347 52.304 118.465 52.0053 118.529 51.6C118.593 51.1733 118.635 50.5867 118.657 49.84C118.678 49.0933 118.689 48.144 118.689 46.992C118.689 45.84 118.678 44.8907 118.657 44.144C118.635 43.3973 118.593 42.8213 118.529 42.416C118.465 41.9893 118.347 41.68 118.177 41.488C118.027 41.296 117.803 41.1787 117.505 41.136C117.227 41.0933 116.865 41.072 116.417 41.072C115.969 41.072 115.595 41.0933 115.297 41.136C115.019 41.1787 114.806 41.296 114.657 41.488C114.507 41.68 114.39 41.9893 114.305 42.416C114.241 42.8213 114.198 43.3973 114.177 44.144C114.177 44.8907 114.177 45.84 114.177 46.992C114.177 48.144 114.177 49.0933 114.177 49.84C114.198 50.5867 114.241 51.1733 114.305 51.6C114.39 52.0053 114.507 52.304 114.657 52.496C114.806 52.688 115.019 52.8053 115.297 52.848C115.595 52.8907 115.969 52.912 116.417 52.912ZM137.632 58V35.984H145.12V58H137.632ZM159.252 58L155.188 35.984H162.612L164.468 49.808H164.82L167.188 35.984H174.868L177.3 49.808H177.652L179.252 35.984H186.708L182.644 58H173.204L171.124 46.896H170.772L168.692 58H159.252ZM193.567 58V50.896L186.623 35.984H194.239L197.279 44.176H197.503L200.543 35.984H207.999L201.055 50.896V58H193.567ZM218.862 58.256C217.198 58.256 215.779 58.1493 214.606 57.936C213.454 57.7013 212.494 57.3387 211.726 56.848C210.958 56.336 210.36 55.6533 209.934 54.8C209.507 53.9253 209.208 52.848 209.038 51.568C208.867 50.288 208.782 48.7627 208.782 46.992C208.782 45.2213 208.867 43.696 209.038 42.416C209.208 41.136 209.507 40.0693 209.934 39.216C210.36 38.3413 210.958 37.6587 211.726 37.168C212.494 36.656 213.454 36.2933 214.606 36.08C215.779 35.8453 217.198 35.728 218.862 35.728C219.651 35.728 220.515 35.76 221.454 35.824C222.414 35.888 223.374 35.984 224.333 36.112C225.294 36.2187 226.179 36.3467 226.99 36.496V41.488C226.328 41.4027 225.624 41.3387 224.878 41.296C224.152 41.232 223.459 41.1787 222.798 41.136C222.158 41.0933 221.646 41.072 221.262 41.072C220.259 41.072 219.438 41.0933 218.798 41.136C218.158 41.1787 217.656 41.296 217.294 41.488C216.931 41.68 216.664 41.9893 216.494 42.416C216.323 42.8213 216.216 43.3973 216.174 44.144C216.131 44.8907 216.11 45.84 216.11 46.992C216.11 48.016 216.12 48.8907 216.142 49.616C216.184 50.32 216.259 50.896 216.366 51.344C216.494 51.792 216.664 52.144 216.878 52.4C217.112 52.6347 217.411 52.8053 217.774 52.912C218.158 52.9973 218.627 53.04 219.182 53.04C219.267 53.04 219.384 53.04 219.534 53.04C219.683 53.0187 219.854 53.008 220.046 53.008C220.238 53.008 220.408 53.008 220.558 53.008V49.584H218.446V44.752H227.086V57.584C226.296 57.712 225.411 57.8293 224.43 57.936C223.47 58.0213 222.499 58.096 221.518 58.16C220.558 58.224 219.672 58.256 218.862 58.256ZM239.729 58.256C237.788 58.256 236.198 58.1387 234.961 57.904C233.745 57.6693 232.796 57.296 232.113 56.784C231.43 56.272 230.929 55.5787 230.609 54.704C230.31 53.8293 230.129 52.7627 230.065 51.504C230.001 50.224 229.969 48.72 229.969 46.992C229.969 45.264 230.001 43.7707 230.065 42.512C230.129 41.232 230.31 40.1547 230.609 39.28C230.929 38.4053 231.43 37.712 232.113 37.2C232.796 36.688 233.745 36.3147 234.961 36.08C236.198 35.8453 237.788 35.728 239.729 35.728C241.67 35.728 243.249 35.8453 244.465 36.08C245.702 36.3147 246.662 36.688 247.345 37.2C248.049 37.712 248.55 38.4053 248.849 39.28C249.148 40.1547 249.329 41.232 249.393 42.512C249.478 43.7707 249.521 45.264 249.521 46.992C249.521 48.72 249.478 50.224 249.393 51.504C249.329 52.7627 249.148 53.8293 248.849 54.704C248.55 55.5787 248.049 56.272 247.345 56.784C246.662 57.296 245.702 57.6693 244.465 57.904C243.249 58.1387 241.67 58.256 239.729 58.256ZM239.729 52.912C240.177 52.912 240.54 52.8907 240.817 52.848C241.116 52.8053 241.34 52.688 241.489 52.496C241.66 52.304 241.777 52.0053 241.841 51.6C241.905 51.1733 241.948 50.5867 241.969 49.84C241.99 49.0933 242.001 48.144 242.001 46.992C242.001 45.84 241.99 44.8907 241.969 44.144C241.948 43.3973 241.905 42.8213 241.841 42.416C241.777 41.9893 241.66 41.68 241.489 41.488C241.34 41.296 241.116 41.1787 240.817 41.136C240.54 41.0933 240.177 41.072 239.729 41.072C239.281 41.072 238.908 41.0933 238.609 41.136C238.332 41.1787 238.118 41.296 237.969 41.488C237.82 41.68 237.702 41.9893 237.617 42.416C237.553 42.8213 237.51 43.3973 237.489 44.144C237.489 44.8907 237.489 45.84 237.489 46.992C237.489 48.144 237.489 49.0933 237.489 49.84C237.51 50.5867 237.553 51.1733 237.617 51.6C237.702 52.0053 237.82 52.304 237.969 52.496C238.118 52.688 238.332 52.8053 238.609 52.848C238.908 52.8907 239.281 52.912 239.729 52.912ZM252.507 58V35.984H260.667C262.715 35.984 264.379 36.0907 265.659 36.304C266.96 36.5173 267.974 36.8693 268.699 37.36C269.424 37.8507 269.947 38.5227 270.267 39.376C270.587 40.208 270.779 41.2533 270.843 42.512C270.928 43.7493 270.971 45.2427 270.971 46.992C270.971 48.7413 270.928 50.2453 270.843 51.504C270.779 52.7413 270.587 53.7867 270.267 54.64C269.947 55.472 269.424 56.1333 268.699 56.624C267.974 57.1147 266.96 57.4667 265.659 57.68C264.379 57.8933 262.715 58 260.667 58H252.507ZM259.995 52.656H260.763C261.296 52.656 261.734 52.6347 262.075 52.592C262.416 52.528 262.683 52.4107 262.875 52.24C263.067 52.048 263.195 51.7493 263.259 51.344C263.344 50.9387 263.398 50.3947 263.419 49.712C263.44 49.008 263.451 48.112 263.451 47.024C263.451 45.9147 263.44 45.008 263.419 44.304C263.398 43.6 263.344 43.0453 263.259 42.64C263.195 42.2347 263.067 41.936 262.875 41.744C262.683 41.552 262.416 41.4347 262.075 41.392C261.734 41.3493 261.296 41.328 260.763 41.328H259.995V52.656ZM273.945 58V35.984H281.593L285.881 44.496H286.105V35.984H293.241V58H286.361L281.273 47.728H281.081V58H273.945ZM296.507 58V35.984H303.995V58H296.507ZM307.257 58V35.984H323.385V41.328H314.713V44.272H321.881V49.488H314.713V52.656H323.385V58H307.257Z" fill="#1D1D1D"/>
</svg>
