<svg width="81" height="36" viewBox="0 0 81 36" fill="none" xmlns="http://www.w3.org/2000/svg">
<path fill-rule="evenodd" clip-rule="evenodd" d="M11.4694 3.93395C12.7878 5.86852 14.4921 7.02492 14.4921 7.02492C14.4921 7.02492 14.0527 5.03634 12.7235 3.09097C11.4051 1.15641 9.70078 0 9.70078 0C9.70078 0 10.151 1.9886 11.4694 3.93395ZM4.28756 18.7619C6.65642 18.7619 8.57512 18.0162 8.57512 18.0162C8.57512 18.0162 6.65642 17.2705 4.28756 17.2705C1.91868 17.2705 0 18.0162 0 18.0162C0 18.0162 1.91868 18.7619 4.28756 18.7619ZM10.151 11.7695C10.151 11.7695 8.10375 11.5426 6.01356 10.4402C3.92337 9.33781 2.58352 7.79233 2.58352 7.79233C2.58352 7.79233 4.63082 8.01929 6.72101 9.12168C8.82192 10.2132 10.151 11.7695 10.151 11.7695ZM16.9682 20.6425C16.9682 20.6425 16.2071 20.9451 14.9959 20.9559C16.2929 25.052 19.1334 28.5644 23.5817 29.1264C23.078 29.1912 22.5634 29.2345 22.0382 29.2345C15.7569 29.2561 10.6547 24.2522 10.6226 18.0486C10.5905 11.8451 15.6605 6.79794 21.931 6.77634C22.4991 6.76554 23.0458 6.80875 23.5817 6.8844C18.5117 7.52206 15.1674 11.6073 14.4921 16.6545C14.2777 19.7238 16.9682 20.6425 16.9682 20.6425ZM14.4921 28.9751C14.4921 28.9751 12.7878 30.1315 11.4694 32.0661C10.151 34.0006 9.70078 36 9.70078 36C9.70078 36 11.4051 34.8436 12.7235 32.9091C14.0527 30.9637 14.4921 28.9751 14.4921 28.9751ZM6.01356 25.5599C8.10375 24.4576 10.151 24.2306 10.151 24.2306C10.151 24.2306 8.82192 25.7761 6.72101 26.8784C4.63082 27.9808 2.58352 28.2078 2.58352 28.2078C2.58352 28.2078 3.92337 26.6623 6.01356 25.5599Z" fill="#FFCC05"/>
<path fill-rule="evenodd" clip-rule="evenodd" d="M50.7649 19.1943C51.6869 18.2864 52.1477 17.0652 52.1477 15.5629C52.1477 13.985 51.6869 12.7421 50.7864 11.8451C49.8644 10.9481 48.5461 10.4941 46.8311 10.4941H41.5252V25.2249H44.0013V20.5668H47.0027C48.5783 20.5668 49.8432 20.1129 50.7649 19.1943ZM47.0454 12.8826C48.7711 12.8826 49.6393 13.7796 49.6393 15.5629C49.6393 16.3951 49.4036 17.0435 48.9427 17.5083C48.4819 17.973 47.828 18.1999 47.0027 18.1999H43.9906V12.8826H47.0454ZM27.269 10.5268H24.793V25.2575H27.269V10.5268ZM78.8484 25.4954C79.277 25.4954 79.6952 25.4414 80.0918 25.3441H80.1026V23.3123C79.8668 23.3447 79.6629 23.3555 79.4809 23.3555C78.8592 23.3555 78.4517 23.2151 78.259 22.9556C78.0981 22.7503 78.0124 22.3288 78.0124 21.6804V15.7146H80.1452V13.7368H78.0124V10.5485H75.6112V21.8317C75.6112 23.1826 75.7829 24.0904 76.1366 24.5768C76.5759 25.1928 77.4764 25.4954 78.8484 25.4954ZM36.6699 25.2792H39.1032V17.8004C39.1032 16.5467 38.7492 15.574 38.0633 14.8823C37.3771 14.1799 36.4555 13.7691 35.2978 13.7691C32.6288 13.7691 29.6704 14.4284 29.6704 14.4284V25.2792H32.1036V16.1684C32.9504 15.9847 34.1187 15.8118 34.8476 15.8658C36.0267 15.9631 36.6699 16.7628 36.6699 18.2435V25.2792ZM63.6164 19.4214C63.6164 21.1938 63.1234 22.6204 62.1372 23.7011C61.1511 24.7819 59.8754 25.3223 58.3106 25.3223C56.7458 25.3223 55.4593 24.7819 54.484 23.7011C53.4978 22.6204 53.0048 21.1938 53.0048 19.4214C53.0048 17.6489 53.4978 16.2223 54.484 15.1523C55.4701 14.0824 56.7458 13.542 58.3106 13.542C59.8969 13.542 61.1726 14.0824 62.1587 15.1523C63.1234 16.2331 63.6164 17.6489 63.6164 19.4214ZM61.1081 19.4322C61.1081 18.319 60.8512 17.4436 60.3474 16.7951C59.8328 16.1467 59.1573 15.8224 58.3106 15.8224C57.4638 15.8224 56.7884 16.1467 56.2742 16.8059C55.7596 17.4652 55.5131 18.3406 55.5131 19.4322C55.5131 20.5454 55.7704 21.4207 56.2742 22.0692C56.7884 22.7177 57.4638 23.0419 58.3106 23.0419C59.1573 23.0419 59.8328 22.7177 60.3474 22.0692C60.8512 21.4207 61.1081 20.5454 61.1081 19.4322ZM72.889 24.2094C73.7464 23.496 74.1754 22.5774 74.1754 21.4642C74.1754 19.735 73.114 18.6759 70.9812 18.276C70.0807 18.1139 69.1695 17.9518 68.2478 17.8112C67.5939 17.6383 67.2724 17.3141 67.2724 16.8494C67.2724 16.0388 67.9798 15.6389 69.4052 15.6389C70.52 15.6389 71.5169 16.028 72.3851 16.8062L73.8321 15.2715C72.6317 14.1475 71.1847 13.5855 69.4805 13.5855C68.0762 13.5855 66.9507 13.9205 66.1039 14.6014C65.2572 15.2823 64.839 16.1361 64.839 17.1412C64.839 18.1355 65.1819 18.8812 65.8789 19.3784C66.4791 19.7891 67.4652 20.0916 68.8588 20.297C70.0162 20.4807 70.7239 20.6212 70.9916 20.7185C71.4528 20.8914 71.6778 21.2156 71.6778 21.6804C71.6778 22.0803 71.4743 22.4261 71.0776 22.6963C70.6809 22.9665 70.1448 23.107 69.459 23.107C68.2371 23.107 67.1649 22.6531 66.2433 21.7452L64.3997 23.3015C65.6001 24.62 67.2936 25.2793 69.4912 25.2793C70.8952 25.2793 72.0315 24.9227 72.889 24.2094Z" fill="white"/>
</svg>
