<svg width="107" height="84" viewBox="0 0 107 84" fill="none" xmlns="http://www.w3.org/2000/svg">
<path d="M32.2253 31.7988H16.1758V47.8484H32.2253V31.7988Z" fill="#020203"/>
<path d="M3.2207 47.4501V50.6777H6.44832V47.4501H3.2207Z" fill="#020203"/>
<path d="M3.2207 41.079V44.3066H6.44832V41.079H3.2207Z" fill="#020203"/>
<path d="M19.3622 41.0781H22.5898V37.8505H19.3622V41.0781Z" fill="#020203"/>
<path d="M16.1298 41.0781H19.3574V37.8505H16.1298V41.0781Z" fill="#020203"/>
<path d="M12.9013 41.0781H16.1289V37.8505H12.9013V41.0781Z" fill="#020203"/>
<path d="M9.68253 41.0781H12.9102V37.8505H9.68253V41.0781Z" fill="#020203"/>
<path d="M6.45597 41.0781H9.68359V37.8505H6.45597V41.0781Z" fill="#020203"/>
<path d="M25.8125 44.3175V41.0898H22.5849V44.3175H25.8125Z" fill="#020203"/>
<path d="M3.2207 44.3036V47.5312H6.44832V44.3036H3.2207Z" fill="#020203"/>
<path d="M25.8125 47.544V44.3164H22.5849V47.544H25.8125Z" fill="#020203"/>
<path d="M25.8125 51.0323V47.8047H22.5849V51.0323H25.8125Z" fill="#020203"/>
<path d="M38.7314 41.4355H41.959V38.2079H38.7314V41.4355Z" fill="#020203"/>
<path d="M35.497 41.4355H38.7246V38.2079H35.497V41.4355Z" fill="#020203"/>
<path d="M32.2685 41.4355H35.4961V38.2079H32.2685V41.4355Z" fill="#020203"/>
<path d="M29.04 41.0781H32.2676V37.8505H29.04V41.0781Z" fill="#020203"/>
<path d="M25.8114 41.0781H29.0391V37.8505H25.8114V41.0781Z" fill="#020203"/>
<path d="M45.1836 44.6632V41.4355H41.956V44.6632H45.1836Z" fill="#020203"/>
<path d="M45.1836 47.8917V44.6641H41.956V47.8917H45.1836Z" fill="#020203"/>
<path d="M45.1797 51.0323V47.8047H41.9521V51.0323H45.1797Z" fill="#020203"/>
<path d="M58.0946 41.4355H61.3223V38.2079H58.0946V41.4355Z" fill="#020203"/>
<path d="M54.8622 41.4355H58.0898V38.2079H54.8622V41.4355Z" fill="#020203"/>
<path d="M51.6318 41.4355H54.8594V38.2079H51.6318V41.4355Z" fill="#020203"/>
<path d="M48.4052 41.4355H51.6328V38.2079H48.4052V41.4355Z" fill="#020203"/>
<path d="M45.1806 41.4355H48.4082V38.2079H45.1806V41.4355Z" fill="#020203"/>
<path d="M64.5488 44.6671V41.4395H61.3212V44.6671H64.5488Z" fill="#020203"/>
<path d="M64.5488 47.8995V44.6719H61.3212V47.8995H64.5488Z" fill="#020203"/>
<path d="M64.5488 51.0323V47.8047H61.3212V51.0323H64.5488Z" fill="#020203"/>
<path d="M77.4618 41.4355H80.6895V38.2079H77.4618V41.4355Z" fill="#020203"/>
<path d="M74.2333 41.4355H77.4609V38.2079H74.2333V41.4355Z" fill="#020203"/>
<path d="M71.0068 41.4355H74.2344V38.2079H71.0068V41.4355Z" fill="#020203"/>
<path d="M67.7782 41.4355H71.0059V38.2079H67.7782V41.4355Z" fill="#020203"/>
<path d="M64.5419 41.4355H67.7695V38.2079H64.5419V41.4355Z" fill="#020203"/>
<path d="M83.918 44.7061V41.4785H80.6903V44.7061H83.918Z" fill="#020203"/>
<path d="M83.918 47.9307V44.7031H80.6903V47.9307H83.918Z" fill="#020203"/>
<path d="M83.918 51.0714V47.8438H80.6903V51.0714H83.918Z" fill="#020203"/>
<path d="M3.2207 34.622V37.8496H6.44832V34.622H3.2207Z" fill="#020203"/>
<path d="M3.2207 28.2665V31.4941H6.44832V28.2665H3.2207Z" fill="#020203"/>
<path d="M19.3622 28.5234H22.5898V25.2958H19.3622V28.5234Z" fill="#020203"/>
<path d="M16.1298 28.5234H19.3574V25.2958H16.1298V28.5234Z" fill="#020203"/>
<path d="M12.9013 28.5234H16.1289V25.2958H12.9013V28.5234Z" fill="#020203"/>
<path d="M9.68253 28.5234H12.9102V25.2958H9.68253V28.5234Z" fill="#020203"/>
<path d="M6.45597 28.5234H9.68359V25.2958H6.45597V28.5234Z" fill="#020203"/>
<path d="M25.8125 31.7921V28.5645H22.5849V31.7921H25.8125Z" fill="#020203"/>
<path d="M3.2207 31.4911V34.7188H6.44832V31.4911H3.2207Z" fill="#020203"/>
<path d="M25.8125 37.8585V34.6309H22.5849V37.8585H25.8125Z" fill="#020203"/>
<path d="M38.7314 28.5234H41.959V25.2958H38.7314V28.5234Z" fill="#020203"/>
<path d="M35.497 28.5234H38.7246V25.2958H35.497V28.5234Z" fill="#020203"/>
<path d="M32.2685 28.5234H35.4961V25.2958H32.2685V28.5234Z" fill="#020203"/>
<path d="M29.04 28.5234H32.2676V25.2958H29.04V28.5234Z" fill="#020203"/>
<path d="M25.8114 28.5234H29.0391V25.2958H25.8114V28.5234Z" fill="#020203"/>
<path d="M45.1797 31.7608V28.5332H41.9521V31.7608H45.1797Z" fill="#020203"/>
<path d="M45.1836 34.9757V31.748H41.956V34.9757H45.1836Z" fill="#020203"/>
<path d="M45.1836 38.2081V34.9805H41.956V38.2081H45.1836Z" fill="#020203"/>
<path d="M58.0946 28.5234H61.3223V25.2958H58.0946V28.5234Z" fill="#020203"/>
<path d="M54.8622 28.5234H58.0898V25.2958H54.8622V28.5234Z" fill="#020203"/>
<path d="M51.6318 28.5234H54.8594V25.2958H51.6318V28.5234Z" fill="#020203"/>
<path d="M48.4052 28.5234H51.6328V25.2958H48.4052V28.5234Z" fill="#020203"/>
<path d="M45.1806 28.5234H48.4082V25.2958H45.1806V28.5234Z" fill="#020203"/>
<path d="M64.5488 31.7511V28.5234H61.3212V31.7511H64.5488Z" fill="#020203"/>
<path d="M64.5488 34.9757V31.748H61.3212V34.9757H64.5488Z" fill="#020203"/>
<path d="M64.5488 38.2081V34.9805H61.3212V38.2081H64.5488Z" fill="#020203"/>
<path d="M77.4618 28.5234H80.6895V25.2958H77.4618V28.5234Z" fill="#020203"/>
<path d="M74.2333 28.5234H77.4609V25.2958H74.2333V28.5234Z" fill="#020203"/>
<path d="M71.0068 28.5234H74.2344V25.2958H71.0068V28.5234Z" fill="#020203"/>
<path d="M67.7782 28.5234H71.0059V25.2958H67.7782V28.5234Z" fill="#020203"/>
<path d="M64.5419 28.5234H67.7695V25.2958H64.5419V28.5234Z" fill="#020203"/>
<path d="M83.918 31.7452V28.5176H80.6903V31.7452H83.918Z" fill="#020203"/>
<path d="M83.918 34.9698V31.7422H80.6903V34.9698H83.918Z" fill="#020203"/>
<path d="M83.918 38.2081V34.9805H80.6903V38.2081H83.918Z" fill="#020203"/>
<path d="M9.68075 79.9746H6.45312V83.2022H9.68075V79.9746Z" fill="#020203"/>
<path d="M103.218 5.92773H106.445V3.21709L103.218 3.21709V5.92773Z" fill="#020203"/>
<path d="M0.000893116 5.92773H3.22852L3.22852 3.21709L0.000893116 3.21709L0.000893116 5.92773Z" fill="#020203"/>
<path d="M3.21959 3.22852L103.217 3.22852V0.000896692L3.21959 0.000896692V3.22852Z" fill="#020203"/>
<path d="M12.9112 79.9746H9.68359V83.2022H12.9112V79.9746Z" fill="#020203"/>
<path d="M16.1378 79.9746H12.9102V83.2022H16.1378V79.9746Z" fill="#020203"/>
<path d="M67.7787 79.9746H16.1367V83.2022H67.7787V79.9746Z" fill="#020203"/>
<path d="M22.5909 79.9746H19.3633V83.2022H22.5909V79.9746Z" fill="#020203"/>
<path d="M3.2207 76.747V79.9746H6.44832V76.747H3.2207Z" fill="#020203"/>
<path d="M3.2207 67.0712V70.2988H6.44832V67.0712H3.2207Z" fill="#020203"/>
<path d="M3.2207 63.8407V67.0684H6.44832V63.8407H3.2207Z" fill="#020203"/>
<path d="M3.2207 60.6122V63.8398H6.44832V60.6122H3.2207Z" fill="#020203"/>
<path d="M3.2207 54.2489V57.4766H6.44832V54.2489H3.2207Z" fill="#020203"/>
<path d="M19.3622 54.248H22.5898V51.0204H19.3622V54.248Z" fill="#020203"/>
<path d="M16.1298 54.248H19.3574V51.0204H16.1298V54.248Z" fill="#020203"/>
<path d="M12.9013 54.248H16.1289V51.0204H12.9013V54.248Z" fill="#020203"/>
<path d="M9.68253 54.248H12.9102V51.0204H9.68253V54.248Z" fill="#020203"/>
<path d="M6.45597 54.248H9.68359V51.0204H6.45597V54.248Z" fill="#020203"/>
<path d="M25.8125 57.4796V54.252H22.5849V57.4796H25.8125Z" fill="#020203"/>
<path d="M3.2207 57.4775V60.7051H6.44832V57.4775H3.2207Z" fill="#020203"/>
<path d="M25.8125 60.7081V57.4805H22.5849V60.7081H25.8125Z" fill="#020203"/>
<path d="M25.8203 63.8526V60.625H22.5927V63.8526H25.8203Z" fill="#020203"/>
<path d="M25.8203 67.0772V63.8496H22.5927V67.0772H25.8203Z" fill="#020203"/>
<path d="M25.8203 70.3116V67.084H22.5927V70.3116H25.8203Z" fill="#020203"/>
<path d="M3.2207 70.2997V73.5273H6.44832V70.2997H3.2207Z" fill="#020203"/>
<path d="M25.8203 73.5264V70.2988H22.5927V73.5264H25.8203Z" fill="#020203"/>
<path d="M3.2207 73.5263V76.7539H6.44832V73.5263H3.2207Z" fill="#020203"/>
<path d="M25.8203 76.755V73.5273H22.5927V76.755H25.8203Z" fill="#020203"/>
<path d="M25.8203 79.9815V76.7539H22.5927V79.9815H25.8203Z" fill="#020203"/>
<path d="M29.0479 79.9746H25.8203V83.2022H29.0479V79.9746Z" fill="#020203"/>
<path d="M32.2745 79.9746H29.0469V83.2022H32.2745V79.9746Z" fill="#020203"/>
<path d="M35.503 79.9746H32.2754V83.2022H35.503V79.9746Z" fill="#020203"/>
<path d="M38.7315 79.9746H35.5039V83.2022H38.7315V79.9746Z" fill="#020203"/>
<path d="M41.9639 79.9746H38.7363V83.2022H41.9639V79.9746Z" fill="#020203"/>
<path d="M38.7314 54.248H41.959V51.0204H38.7314V54.248Z" fill="#020203"/>
<path d="M35.497 54.248H38.7246V51.0204H35.497V54.248Z" fill="#020203"/>
<path d="M32.2685 54.248H35.4961V51.0204H32.2685V54.248Z" fill="#020203"/>
<path d="M29.04 54.248H32.2676V51.0204H29.04V54.248Z" fill="#020203"/>
<path d="M25.8114 54.248H29.0391V51.0204H25.8114V54.248Z" fill="#020203"/>
<path d="M45.1797 57.4796V54.252H41.9521V57.4796H45.1797Z" fill="#020203"/>
<path d="M45.1797 60.7081V57.4805H41.9521V60.7081H45.1797Z" fill="#020203"/>
<path d="M45.1836 63.8526V60.625H41.956V63.8526H45.1836Z" fill="#020203"/>
<path d="M45.1836 67.0772V63.8496H41.956V67.0772H45.1836Z" fill="#020203"/>
<path d="M45.1836 70.3116V67.084H41.956V70.3116H45.1836Z" fill="#020203"/>
<path d="M45.1836 73.5264V70.2988H41.956V73.5264H45.1836Z" fill="#020203"/>
<path d="M45.1836 76.755V73.5273H41.956V76.755H45.1836Z" fill="#020203"/>
<path d="M45.1836 79.9815V76.7539H41.956V79.9815H45.1836Z" fill="#020203"/>
<path d="M48.4112 79.9746H45.1836V83.2022H48.4112V79.9746Z" fill="#020203"/>
<path d="M51.6417 79.9746H48.4141V83.2022H51.6417V79.9746Z" fill="#020203"/>
<path d="M54.8682 79.9746H51.6406V83.2022H54.8682V79.9746Z" fill="#020203"/>
<path d="M58.0968 79.9746H54.8691V83.2022H58.0968V79.9746Z" fill="#020203"/>
<path d="M61.3311 79.9746H58.1035V83.2022H61.3311V79.9746Z" fill="#020203"/>
<path d="M58.0946 54.248H61.3223V51.0204H58.0946V54.248Z" fill="#020203"/>
<path d="M54.8622 54.248H58.0898V51.0204H54.8622V54.248Z" fill="#020203"/>
<path d="M51.6318 54.248H54.8594V51.0204H51.6318V54.248Z" fill="#020203"/>
<path d="M48.4052 54.248H51.6328V51.0204H48.4052V54.248Z" fill="#020203"/>
<path d="M45.1806 54.248H48.4082V51.0204H45.1806V54.248Z" fill="#020203"/>
<path d="M64.543 57.4796V54.252H61.3153V57.4796H64.543Z" fill="#020203"/>
<path d="M64.543 60.7081V57.4805H61.3153V60.7081H64.543Z" fill="#020203"/>
<path d="M64.5488 63.8429V60.6152H61.3212V63.8429H64.5488Z" fill="#020203"/>
<path d="M64.5488 67.0675V63.8398H61.3212V67.0675H64.5488Z" fill="#020203"/>
<path d="M64.5488 70.296V67.0684H61.3212V70.296H64.5488Z" fill="#020203"/>
<path d="M64.5488 73.5265V70.2988H61.3212V73.5265H64.5488Z" fill="#020203"/>
<path d="M64.5488 76.755V73.5273H61.3212V76.755H64.5488Z" fill="#020203"/>
<path d="M64.5488 79.9815V76.7539H61.3212V79.9815H64.5488Z" fill="#020203"/>
<path d="M67.7764 79.9746H64.5488V83.2022H67.7764V79.9746Z" fill="#020203"/>
<path d="M71.005 79.9746H67.7773V83.2022H71.005V79.9746Z" fill="#020203"/>
<path d="M74.2335 79.9746H71.0059V83.2022H74.2335V79.9746Z" fill="#020203"/>
<path d="M77.4679 79.9746H74.2402V83.2022H77.4679V79.9746Z" fill="#020203"/>
<path d="M80.6983 79.9746H77.4707V83.2022H80.6983V79.9746Z" fill="#020203"/>
<path d="M77.4618 54.248H80.6895V51.0204H77.4618V54.248Z" fill="#020203"/>
<path d="M74.2333 54.248H77.4609V51.0204H74.2333V54.248Z" fill="#020203"/>
<path d="M71.0068 54.248H74.2344V51.0204H71.0068V54.248Z" fill="#020203"/>
<path d="M67.7782 54.248H71.0059V51.0204H67.7782V54.248Z" fill="#020203"/>
<path d="M64.5419 54.248H67.7695V51.0204H64.5419V54.248Z" fill="#020203"/>
<path d="M83.918 57.4796V54.252H80.6903V57.4796H83.918Z" fill="#020203"/>
<path d="M83.918 60.7081V57.4805H80.6903V60.7081H83.918Z" fill="#020203"/>
<path d="M83.918 63.8429V60.6152H80.6903V63.8429H83.918Z" fill="#020203"/>
<path d="M83.918 67.0675V63.8398H80.6903V67.0675H83.918Z" fill="#020203"/>
<path d="M83.918 70.296V67.0684H80.6903V70.296H83.918Z" fill="#020203"/>
<path d="M83.918 73.5265V70.2988H80.6903V73.5265H83.918Z" fill="#020203"/>
<path d="M83.918 76.755V73.5273H80.6903V76.755H83.918Z" fill="#020203"/>
<path d="M83.918 79.9815V76.7539H80.6903V79.9815H83.918Z" fill="#020203"/>
<path d="M83.918 83.2022V79.9746H80.6903V83.2022H83.918Z" fill="#020203"/>
<path d="M83.918 22.0694V18.8418H80.6903V22.0694H83.918Z" fill="#020203"/>
<path d="M83.918 25.294V22.0664H80.6903V25.294H83.918Z" fill="#020203"/>
<path d="M61.3164 22.0614V25.2891H64.544V22.0614H61.3164Z" fill="#020203"/>
<path d="M61.3164 18.8349V22.0625H64.544V18.8349H61.3164Z" fill="#020203"/>
<path d="M83.9102 18.839V15.6113H80.6825V18.839H83.9102Z" fill="#020203"/>
<path d="M61.3164 15.6142V18.8418H64.544V15.6142H61.3164Z" fill="#020203"/>
<path d="M83.9102 15.6104V12.3828H80.6825V15.6104H83.9102Z" fill="#020203"/>
<path d="M83.9102 12.3858V9.1582H80.6825V12.3858H83.9102Z" fill="#020203"/>
<path d="M96.7763 41.4355H100.004V38.2079H96.7763V41.4355Z" fill="#020203"/>
<path d="M93.5419 41.4355H96.7695V38.2079H93.5419V41.4355Z" fill="#020203"/>
<path d="M90.3114 41.4355H93.5391V38.2079H90.3114V41.4355Z" fill="#020203"/>
<path d="M87.0868 41.4355H90.3145V38.2079H87.0868V41.4355Z" fill="#020203"/>
<path d="M83.8583 41.4355H87.0859V38.2079H83.8583V41.4355Z" fill="#020203"/>
<path d="M103.225 44.3175V41.0898H99.997V44.3175H103.225Z" fill="#020203"/>
<path d="M103.225 47.544V44.3164H99.997V47.544H103.225Z" fill="#020203"/>
<path d="M103.225 50.6729V47.4453H99.997V50.6729H103.225Z" fill="#020203"/>
<path d="M96.7763 28.5234H100.004V25.2958H96.7763V28.5234Z" fill="#020203"/>
<path d="M93.5419 28.5234H96.7695V25.2958H93.5419V28.5234Z" fill="#020203"/>
<path d="M90.3114 28.5234H93.5391V25.2958H90.3114V28.5234Z" fill="#020203"/>
<path d="M87.0868 28.5234H90.3145V25.2958H87.0868V28.5234Z" fill="#020203"/>
<path d="M83.8583 28.5234H87.0859V25.2958H83.8583V28.5234Z" fill="#020203"/>
<path d="M103.225 31.4932V28.2656H99.997V31.4932H103.225Z" fill="#020203"/>
<path d="M103.225 34.7218V31.4941H99.997V34.7218H103.225Z" fill="#020203"/>
<path d="M103.225 37.8585V34.6309H99.997V37.8585H103.225Z" fill="#020203"/>
<path d="M87.0929 79.9746H83.8652V83.2022H87.0929V79.9746Z" fill="#020203"/>
<path d="M90.3194 79.9746H87.0918V83.2022H90.3194V79.9746Z" fill="#020203"/>
<path d="M93.5479 79.9746H90.3203V83.2022H93.5479V79.9746Z" fill="#020203"/>
<path d="M96.7745 79.9746H93.5469V83.2022H96.7745V79.9746Z" fill="#020203"/>
<path d="M100.005 79.9746H96.7773V83.2022H100.005V79.9746Z" fill="#020203"/>
<path d="M96.7763 54.248H100.004V51.0204H96.7763V54.248Z" fill="#020203"/>
<path d="M93.5419 54.248H96.7695V51.0204H93.5419V54.248Z" fill="#020203"/>
<path d="M90.3114 54.248H93.5391V51.0204H90.3114V54.248Z" fill="#020203"/>
<path d="M87.0868 54.248H90.3145V51.0204H87.0868V54.248Z" fill="#020203"/>
<path d="M83.8583 54.248H87.0859V51.0204H83.8583V54.248Z" fill="#020203"/>
<path d="M103.225 57.4796V54.252H99.997V57.4796H103.225Z" fill="#020203"/>
<path d="M103.225 60.7081V57.4805H99.997V60.7081H103.225Z" fill="#020203"/>
<path d="M103.225 63.8429V60.6152H99.997V63.8429H103.225Z" fill="#020203"/>
<path d="M103.225 67.0675V63.8398H99.997V67.0675H103.225Z" fill="#020203"/>
<path d="M103.225 70.296V67.0684H99.997V70.296H103.225Z" fill="#020203"/>
<path d="M103.225 73.5264V70.2988H99.997V73.5264H103.225Z" fill="#020203"/>
<path d="M103.225 76.755V73.5273H99.997V76.755H103.225Z" fill="#020203"/>
<path d="M103.225 79.9815V76.7539H99.997V79.9815H103.225Z" fill="#020203"/>
<path d="M103.225 83.2105V6.44922H99.997V83.2105H103.225Z" fill="#020203"/>
<path d="M103.225 22.5909V19.3633H99.997V22.5909H103.225Z" fill="#020203"/>
<path d="M103.225 25.8155V22.5879H99.997V25.8155H103.225Z" fill="#020203"/>
<path d="M103.225 19.3585V16.1309H99.997V19.3585H103.225Z" fill="#020203"/>
<path d="M103.225 16.13V12.9023H99.997V16.13H103.225Z" fill="#020203"/>
<path d="M61.3164 12.3759V15.6035H64.544V12.3759H61.3164Z" fill="#020203"/>
<path d="M61.3164 9.14933V12.377H64.544V9.14933H61.3164Z" fill="#020203"/>
<path d="M41.9453 22.0614V25.2891H45.1729V22.0614H41.9453Z" fill="#020203"/>
<path d="M41.9453 18.8349V22.0625H45.1729V18.8349H41.9453Z" fill="#020203"/>
<path d="M41.9492 15.6142V18.8418H45.1768V15.6142H41.9492Z" fill="#020203"/>
<path d="M41.9492 12.3759V15.6035H45.1768V12.3759H41.9492Z" fill="#020203"/>
<path d="M41.9492 9.14933V12.377H45.1768V9.14933H41.9492Z" fill="#020203"/>
<path d="M22.5762 22.0614V25.2891H25.8038V22.0614H22.5762Z" fill="#020203"/>
<path d="M22.5762 18.8349V22.0625H25.8038V18.8349H22.5762Z" fill="#020203"/>
<path d="M22.584 15.6142V18.8418H25.8116V15.6142H22.584Z" fill="#020203"/>
<path d="M22.584 12.3759V15.6035H25.8116V12.3759H22.584Z" fill="#020203"/>
<path d="M22.584 9.14933V12.377H25.8116V9.14933H22.584Z" fill="#020203"/>
<path d="M3.2274 9.15234L103.225 9.15234V5.92472L3.2274 5.92472V9.15234Z" fill="#020203"/>
<path d="M3.19531 22.0556L3.19531 83.2031H6.4525L6.4525 22.0556H3.19531Z" fill="#020203"/>
<path d="M3.2207 18.8388V22.0664H6.44832V18.8388H3.2207Z" fill="#020203"/>
<path d="M3.2207 15.6142V18.8418H6.44832V15.6142H3.2207Z" fill="#020203"/>
<path d="M3.2207 12.3837V15.6113H6.44832V12.3837H3.2207Z" fill="#020203"/>
<path d="M3.2207 9.15519V12.3828H6.44832V9.15519H3.2207Z" fill="#020203"/>
<path d="M103.218 83.2031H106.445V79.9755H103.218V83.2031Z" fill="#020203"/>
<path d="M0.293861 83.2031H3.52148L3.52148 79.9755H0.293861L0.293861 83.2031Z" fill="#020203"/>
</svg>
