<svg width="75" height="80" viewBox="0 0 75 80" fill="none" xmlns="http://www.w3.org/2000/svg">
<g clip-path="url(#clip0)">
<path d="M62.1779 17.134H12.1078V28.2638H62.1779V17.134Z" fill="#0C2F4F"/>
<path d="M74.2857 61.1372C74.2857 62.0398 73.3663 62.7732 72.2351 62.7732H2.05061C0.919378 62.7732 0 62.0398 0 61.1372V29.8996C0 28.9969 0.919378 28.2635 2.05061 28.2635H72.2311C73.3623 28.2635 74.2817 28.9969 74.2817 29.8996V61.1372H74.2857Z" fill="#FFCC05"/>
<path d="M18.2637 0V28.2597H56.0221V8.15192L45.6571 0H18.2637Z" fill="#E6E5E5"/>
<path d="M45.6571 0V7.99476L56.0221 8.15192L45.6571 0Z" fill="#D2D2D2"/>
<path d="M62.1779 26.5997H12.1078V28.2599H62.1779V26.5997Z" fill="#DFDFDE"/>
<path d="M60.1113 45.5186C60.1113 46.5542 59.2799 47.3923 58.2526 47.3923H16.0331C15.0058 47.3923 14.1744 46.5542 14.1744 45.5186C14.1744 44.483 15.0058 43.6448 16.0331 43.6448H58.2526C59.2799 43.6408 60.1113 44.483 60.1113 45.5186Z" fill="#0C2F4F"/>
<path d="M57.9408 47.3925H16.3449V77.2116H57.9408V47.3925Z" fill="#818181"/>
<path d="M56.0221 45.5469H18.2637V80.0041H56.0221V45.5469Z" fill="#F1EFEF"/>
<path d="M54.2872 49.0928H20.0025V50.1606H54.2872V49.0928Z" fill="#CCCCCC"/>
<path d="M54.2872 51.7039H20.0025V52.7717H54.2872V51.7039Z" fill="#CCCCCC"/>
<path d="M54.2872 54.3152H20.0025V55.383H54.2872V54.3152Z" fill="#CCCCCC"/>
<path d="M54.2872 56.9265H20.0025V57.9944H54.2872V56.9265Z" fill="#CCCCCC"/>
<path d="M54.2872 59.5376H20.0025V60.6054H54.2872V59.5376Z" fill="#CCCCCC"/>
<path d="M54.2872 62.1488H20.0025V63.2167H54.2872V62.1488Z" fill="#CCCCCC"/>
<path d="M54.2872 64.76H20.0025V65.8279H54.2872V64.76Z" fill="#CCCCCC"/>
<path d="M54.2872 67.3711H20.0025V68.4389H54.2872V67.3711Z" fill="#CCCCCC"/>
<path d="M54.2872 69.9823H20.0025V71.0502H54.2872V69.9823Z" fill="#CCCCCC"/>
<path d="M54.2872 72.5936H20.0025V73.6615H54.2872V72.5936Z" fill="#CCCCCC"/>
<path d="M69.6008 35.9764C69.6008 36.5688 69.1252 37.0483 68.5376 37.0483C67.95 37.0483 67.4743 36.5688 67.4743 35.9764C67.4743 35.3841 67.95 34.9045 68.5376 34.9045C69.1252 34.9045 69.6008 35.3841 69.6008 35.9764Z" fill="white"/>
<path d="M69.6008 40.2235C69.6008 40.8158 69.1252 41.2954 68.5376 41.2954C67.95 41.2954 67.4743 40.8158 67.4743 40.2235C67.4743 39.6311 67.95 39.1516 68.5376 39.1516C69.1252 39.1556 69.6008 39.6352 69.6008 40.2235Z" fill="white"/>
<path d="M69.6008 44.4748C69.6008 45.0672 69.1252 45.5467 68.5376 45.5467C67.95 45.5467 67.4743 45.0672 67.4743 44.4748C67.4743 43.8825 67.95 43.403 68.5376 43.403C69.1252 43.407 69.6008 43.8825 69.6008 44.4748Z" fill="white"/>
<path d="M41.5399 34.9045H32.7419V37.0443H41.5399V34.9045Z" fill="white"/>
</g>
<defs>
<clipPath id="clip0">
<rect width="74.2857" height="80" fill="white"/>
</clipPath>
</defs>
</svg>
