<svg width="124" height="102" viewBox="0 0 124 102" fill="none" xmlns="http://www.w3.org/2000/svg">
<path d="M121.56 7.53101H42.136V67.1277H121.56V7.53101Z" fill="#FDFEFE"/>
<path d="M89.8336 27.0002H73.951V42.9097H89.8336V27.0002Z" fill="#414142"/>
<path d="M90.048 34.9604L119.555 34.9825L90.048 34.9604ZM44.3172 34.9604L73.9455 34.9825L44.3172 34.9604ZM44.3172 51.1853L119.555 51.2075L44.3172 51.1853ZM44.3172 42.9096L119.555 42.9317L44.3172 42.9096ZM44.3172 26.9835L119.555 27.0057L44.3172 26.9835ZM105.656 8.74915V68.6392V8.74915ZM89.8282 8.74915V68.6392V8.74915ZM73.951 8.74915V68.6392V8.74915ZM58.0463 8.74915V68.6392V8.74915ZM121.561 66.281L42.257 66.2589V10.9966L121.561 11.0132V66.281ZM123 71.0195L40.521 70.9974V66.2589L123 66.281V71.0195Z" stroke="#3D3D3C" stroke-width="0.5" stroke-miterlimit="10"/>
<path d="M123 66.2589H40.521V71.0196H123V66.2589Z" fill="#3D3D3C"/>
<path d="M123 6.36865H40.521V11.1293H123V6.36865Z" fill="#3D3D3C"/>
<path d="M44.3173 10.67V66.281" stroke="#3D3D3C" stroke-width="0.5" stroke-miterlimit="10"/>
<path d="M119.616 10.9968V67.1282" stroke="#3D3D3C" stroke-width="0.5" stroke-miterlimit="10"/>
<path d="M96.8605 19.3165C96.8605 19.3165 96.1023 19.5324 95.1958 19.4438C94.2894 19.3552 93.5862 19.0009 93.5862 19.0009C93.5862 19.0009 94.3443 18.7851 95.2508 18.8736C96.1573 18.9622 96.8605 19.3165 96.8605 19.3165Z" fill="#FFCC04"/>
<path d="M99.5248 15.3307C99.5248 15.3307 98.915 14.8269 98.481 14.0353C98.047 13.2437 97.9426 12.4688 97.9426 12.4688C97.9426 12.4688 98.5524 12.9725 98.9864 13.7641C99.426 14.5501 99.5248 15.3307 99.5248 15.3307Z" fill="#FFCC04"/>
<path d="M97.6956 16.9858C97.6956 16.9858 96.9209 16.8253 96.1628 16.3271C95.4046 15.8289 94.9486 15.1923 94.9486 15.1923C94.9486 15.1923 95.7233 15.3528 96.4814 15.851C97.2396 16.3437 97.6956 16.9858 97.6956 16.9858Z" fill="#FFCC04"/>
<path d="M98.9206 20.8994C99.3876 20.9381 99.9809 20.6226 99.9809 20.6226C99.9809 20.6226 98.7173 20.1022 98.9096 18.9342C99.3491 17.03 101.041 15.6627 103.003 15.6018C102.799 15.5519 102.59 15.5187 102.376 15.4966C99.9754 15.2807 97.8548 17.0244 97.6405 19.3992C97.4263 21.774 99.2063 23.872 101.607 24.0934C101.805 24.11 102.008 24.1156 102.2 24.1045C100.519 23.7281 99.2392 22.4106 98.8931 20.7942" fill="#FFCC04"/>
<path d="M98.7338 23.7173C98.7338 23.7173 98.0416 24.0992 97.4647 24.7912C96.8878 25.4832 96.6461 26.2305 96.6461 26.2305C96.6461 26.2305 97.3383 25.8485 97.9152 25.1565C98.492 24.4646 98.7338 23.7173 98.7338 23.7173Z" fill="#FFCC04"/>
<path d="M97.2451 21.7466C97.2451 21.7466 96.454 21.7577 95.6134 22.1009C94.7728 22.4441 94.207 22.9866 94.207 22.9866C94.207 22.9866 94.9981 22.9755 95.8386 22.6323C96.6792 22.2891 97.2451 21.7466 97.2451 21.7466Z" fill="#FFCC04"/>
<path d="M102.783 22.9922C102.783 22.8483 102.678 22.7542 102.513 22.7542C102.349 22.7542 102.244 22.8427 102.239 22.9867C102.239 23.1306 102.343 23.2192 102.508 23.2192C102.678 23.2247 102.783 23.1361 102.783 22.9922ZM102.134 23.2967C102.041 23.2192 101.997 23.114 101.997 22.9867C101.997 22.8538 102.046 22.7542 102.134 22.6767C102.228 22.5992 102.354 22.5604 102.508 22.566C102.667 22.566 102.788 22.6047 102.882 22.6822C102.975 22.7597 103.019 22.8649 103.019 22.9922C103.019 23.1195 102.969 23.2247 102.876 23.3022C102.783 23.3797 102.662 23.4184 102.502 23.4129C102.354 23.4129 102.228 23.3742 102.134 23.2967Z" fill="#424242"/>
<path d="M103.909 22.5935H104.145L104.139 23.4018H103.909V23.2744C103.854 23.363 103.744 23.4184 103.607 23.4184C103.486 23.4184 103.398 23.3851 103.326 23.3187C103.255 23.2468 103.228 23.1526 103.228 22.981V22.588H103.464V22.9921C103.464 23.0918 103.486 23.1526 103.535 23.1859C103.574 23.2135 103.612 23.2191 103.667 23.2246C103.771 23.2246 103.854 23.1693 103.892 23.0807C103.903 23.053 103.909 23.0198 103.909 22.9755V22.5935Z" fill="#424242"/>
<path d="M105.008 23.2191V23.4128H104.711C104.546 23.4128 104.48 23.3464 104.48 23.1914V22.7873H104.332V22.5991H104.48V22.3832H104.716V22.5991H105.002V22.7873H104.716V23.136C104.716 23.1969 104.738 23.2135 104.81 23.2135L105.008 23.2191Z" fill="#424242"/>
<path d="M106.809 23.0144C106.809 22.8705 106.705 22.7764 106.54 22.7764C106.375 22.7764 106.271 22.8649 106.266 23.0089C106.266 23.1528 106.37 23.2414 106.535 23.2414C106.7 23.2469 106.804 23.1583 106.809 23.0144ZM106.161 23.3189C106.068 23.2414 106.024 23.1362 106.024 23.0089C106.024 22.876 106.073 22.7764 106.161 22.6989C106.255 22.6214 106.381 22.5826 106.535 22.5882C106.694 22.5882 106.815 22.6269 106.908 22.7044C107.002 22.7819 107.046 22.8871 107.046 23.0144C107.046 23.1417 106.996 23.2469 106.903 23.3244C106.809 23.4019 106.689 23.4407 106.529 23.4351C106.375 23.4351 106.255 23.3964 106.161 23.3189Z" fill="#424242"/>
<path d="M107.793 22.5051H107.645C107.584 22.5051 107.562 22.5217 107.562 22.566V22.6158H107.793V22.804H107.562L107.557 23.424H107.32L107.326 22.804H107.194V22.6158H107.326V22.5549C107.326 22.3944 107.43 22.3224 107.634 22.3279H107.793V22.5051Z" fill="#424242"/>
<path d="M109.062 23.2414V23.4351H108.765C108.601 23.4351 108.535 23.3687 108.535 23.2137V22.8096H108.386V22.6214H108.535V22.4055H108.771V22.6214H109.057V22.8096H108.771V23.1584C108.771 23.2193 108.793 23.2359 108.864 23.2359L109.062 23.2414Z" fill="#424242"/>
<path d="M109.293 23.435L109.298 22.3334H109.535V22.743C109.595 22.66 109.705 22.6102 109.842 22.6102C109.958 22.6102 110.051 22.6434 110.122 22.7098C110.194 22.7818 110.221 22.8759 110.221 23.0475V23.4405H109.985V23.0419C109.985 22.9478 109.963 22.8925 109.919 22.8593C109.881 22.8316 109.831 22.815 109.776 22.815C109.666 22.815 109.579 22.8703 109.54 22.9589C109.529 22.9866 109.524 23.0198 109.524 23.0641V23.446L109.293 23.435Z" fill="#424242"/>
<path d="M110.677 22.9422L111.183 22.9477C111.166 22.8536 111.078 22.7983 110.941 22.7983C110.803 22.7927 110.705 22.8481 110.677 22.9422ZM110.562 23.3518C110.474 23.2743 110.424 23.1747 110.43 23.0418C110.43 22.9145 110.479 22.8149 110.573 22.7318C110.666 22.6543 110.792 22.6156 110.941 22.6156C111.089 22.6156 111.205 22.6543 111.298 22.7263C111.391 22.7983 111.435 22.8868 111.435 22.9976C111.435 23.0086 111.435 23.0142 111.435 23.0252C111.435 23.0363 111.435 23.0585 111.43 23.0972L110.672 23.0917C110.688 23.2079 110.798 23.2743 110.968 23.2743C111.089 23.2743 111.215 23.2356 111.287 23.1692L111.413 23.3131C111.325 23.4072 111.15 23.4681 110.946 23.4626C110.781 23.4626 110.655 23.4238 110.562 23.3518Z" fill="#424242"/>
<path d="M112.886 23.0532C112.886 22.9149 112.782 22.8207 112.622 22.8207C112.457 22.8207 112.348 22.9093 112.348 23.0532C112.348 23.1916 112.457 23.2857 112.622 23.2857C112.776 23.2857 112.886 23.1916 112.886 23.0532ZM112.106 23.4518L112.111 22.3502H112.348V22.7377C112.424 22.6602 112.54 22.6215 112.666 22.6215C112.804 22.6215 112.913 22.6602 112.996 22.7433C113.084 22.8207 113.122 22.9259 113.122 23.0532C113.122 23.1806 113.078 23.2802 112.99 23.3577C112.902 23.4352 112.793 23.474 112.655 23.474C112.523 23.474 112.408 23.4297 112.331 23.3522V23.4518H112.106Z" fill="#424242"/>
<path d="M114.083 23.0585C114.083 22.9146 113.979 22.8204 113.814 22.8204C113.649 22.8204 113.545 22.909 113.54 23.0529C113.54 23.1969 113.644 23.2854 113.809 23.2854C113.979 23.291 114.083 23.2024 114.083 23.0585ZM113.441 23.3629C113.347 23.2854 113.303 23.1803 113.303 23.0529C113.303 22.9201 113.353 22.8204 113.441 22.7429C113.534 22.6654 113.66 22.6267 113.814 22.6322C113.974 22.6322 114.094 22.671 114.188 22.7485C114.281 22.826 114.325 22.9312 114.325 23.0585C114.325 23.1858 114.276 23.291 114.182 23.3685C114.089 23.446 113.968 23.4847 113.809 23.4792C113.655 23.4792 113.529 23.4404 113.441 23.3629Z" fill="#424242"/>
<path d="M115.457 23.4739L115.144 23.4684L114.918 23.2082L114.688 23.4684H114.396L114.775 23.0588L114.407 22.6547L114.715 22.6602L114.935 22.9038L115.155 22.6602H115.446L115.078 23.0532L115.457 23.4739Z" fill="#424242"/>
<path d="M105.277 21.7742L104.645 21.7687L104.656 19.9474C104.656 19.5655 104.492 19.3551 104.189 19.333C103.997 19.3164 103.7 19.3607 103.481 19.4105L103.464 21.7687L102.832 21.7631L102.849 18.9566C102.849 18.9566 103.618 18.7905 104.305 18.796C104.601 18.796 104.843 18.9067 105.019 19.0894C105.195 19.2721 105.283 19.5212 105.283 19.8478L105.277 21.7742Z" fill="#424242"/>
<path d="M116.215 21.8626C116.111 21.8903 116.007 21.9014 115.891 21.9014C115.534 21.9014 115.303 21.8183 115.188 21.6578C115.1 21.5305 115.056 21.2924 115.056 20.9437L115.073 18.0209L115.693 18.0264L115.688 18.8512L116.237 18.8568L116.232 19.366L115.682 19.3605L115.671 20.9049C115.671 21.071 115.693 21.1817 115.732 21.2371C115.781 21.3035 115.886 21.3423 116.045 21.3423C116.089 21.3423 116.144 21.3367 116.204 21.3312L116.215 21.8626Z" fill="#424242"/>
<path d="M101.592 17.9352L101.569 21.7493L102.211 21.7532L102.235 17.9392L101.592 17.9352Z" fill="#424242"/>
<path d="M108.991 19.283C108.991 19.6705 108.865 19.986 108.628 20.2241C108.387 20.4621 108.062 20.5784 107.65 20.5728L106.87 20.5673L106.865 21.7741L106.222 21.7685L106.244 17.9545L107.617 17.9655C108.062 17.9655 108.403 18.0873 108.639 18.3198C108.875 18.5523 108.996 18.8734 108.991 19.283ZM108.343 19.2775C108.348 18.8125 108.123 18.5855 107.672 18.58L106.881 18.5745L106.87 19.9473L107.65 19.9528C107.865 19.9528 108.035 19.8975 108.156 19.7757C108.282 19.665 108.343 19.4934 108.343 19.2775Z" fill="#424242"/>
<path d="M111.958 20.3017C111.952 20.7611 111.826 21.1265 111.568 21.4088C111.309 21.6856 110.98 21.824 110.573 21.824C110.167 21.824 109.837 21.68 109.584 21.3977C109.332 21.1154 109.205 20.7445 109.211 20.2851C109.216 19.8256 109.343 19.4603 109.601 19.1835C109.859 18.9067 110.189 18.7683 110.595 18.7738C111.007 18.7738 111.337 18.9178 111.59 19.2001C111.837 19.4713 111.958 19.8422 111.958 20.3017ZM111.309 20.3017C111.309 20.0138 111.249 19.7869 111.117 19.6153C110.985 19.4492 110.809 19.3606 110.59 19.3606C110.37 19.3606 110.194 19.4437 110.062 19.6097C109.93 19.7813 109.859 20.0028 109.859 20.2906C109.859 20.5785 109.919 20.8054 110.051 20.977C110.183 21.1486 110.359 21.2317 110.579 21.2317C110.798 21.2317 110.974 21.1486 111.106 20.9826C111.238 20.8165 111.304 20.5895 111.309 20.3017Z" fill="#424242"/>
<path d="M114.688 20.8441C114.688 21.1319 114.573 21.37 114.347 21.5526C114.122 21.7353 113.831 21.8294 113.468 21.8239C112.903 21.8184 112.463 21.6468 112.155 21.3035L112.633 20.905C112.87 21.143 113.15 21.2593 113.463 21.2648C113.639 21.2648 113.782 21.2316 113.886 21.1596C113.99 21.0877 114.04 21.0046 114.045 20.8939C114.045 20.7721 113.985 20.6891 113.869 20.6448C113.798 20.6171 113.617 20.5784 113.32 20.5341C112.957 20.4787 112.705 20.3957 112.551 20.2905C112.37 20.1632 112.282 19.9695 112.282 19.7093C112.282 19.4491 112.392 19.2277 112.611 19.0561C112.831 18.8789 113.122 18.7959 113.485 18.7959C113.924 18.7959 114.298 18.9454 114.611 19.2387L114.232 19.6318C114.007 19.4325 113.749 19.3273 113.463 19.3273C113.095 19.3273 112.908 19.427 112.908 19.6373C112.908 19.7591 112.99 19.8421 113.161 19.8864C113.397 19.9252 113.633 19.9695 113.869 20.0082C114.419 20.1245 114.688 20.4012 114.688 20.8441Z" fill="#424242"/>
<path d="M45.0939 37.957C44.2692 38.2686 43.1697 38.7325 43.1697 38.7325C43.0254 38.3863 45.7604 37.7978 46.1384 36.9668C46.3445 36.5168 43.0048 38.1717 42.7711 37.9709C42.6749 37.8878 46.5438 36.6206 46.3652 36.316C46.214 36.0598 42.297 37.4515 42.2764 37.2577C42.2489 36.9876 45.6711 36.2952 45.3619 35.9144C45.2038 35.7136 41.0463 36.8491 40.5996 36.9184C40.0498 36.9184 42.0358 35.5612 41.3624 35.3812C40.4415 35.1319 38.1394 37.7978 37.9608 37.8393C37.4385 37.9501 32.1815 41.6545 35.5968 41.3707C38.3525 41.1422 41.0531 40.5951 43.5408 39.328C44.0974 39.0441 44.8396 38.7256 45.2725 38.234C45.3825 38.0886 45.2519 37.8947 45.0939 37.957Z" fill="#E09078"/>
<path d="M36.0846 41.966L38.2081 40.8304L37.5827 37.4445L34.4491 38.6077L36.0846 41.966Z" fill="#EAB778"/>
<path d="M22.4855 24.4479C26.6224 25.7358 30.5944 35.3535 30.7799 38.1856C30.8005 38.5318 30.883 38.5802 30.9448 38.6149C31.3915 38.8849 33.247 38.1786 34.6213 37.8532C34.91 37.7839 35.1986 37.9571 35.2879 38.2409C35.5834 39.1965 36.1813 40.9275 36.5043 41.8762C36.6279 42.2432 36.4562 42.6448 36.1057 42.8109C30.4569 45.4906 23.585 46.3908 24.9113 37.5831C25.3373 34.7719 22.1213 29.9596 22.5198 28.0346C24.2859 28.1523 20.7194 24.3648 22.4855 24.4479Z" fill="#FFCC05"/>
<path d="M4.68692 56.4792C4.44641 56.3407 3.9585 56.2645 3.82793 56.2645C2.79027 56.4792 2.58411 56.2299 1.52583 56.3061C0.914227 56.6454 0.357599 57.4001 0.158313 58.0648C-0.164668 59.1589 0.0208741 60.4329 0.584374 61.4162C0.632477 61.5062 0.694325 61.5962 0.78366 61.6447C0.99669 61.7762 1.28531 61.6308 1.51896 61.7347C1.71137 61.8178 1.81445 62.0532 2.02061 62.1086C2.30923 62.1917 2.59785 61.8524 2.88648 61.9285C3.14074 61.9978 3.23007 62.3302 3.47746 62.4202C3.66988 62.4894 3.87604 62.3786 4.08219 62.344C4.34333 62.3025 4.61821 62.3994 4.80375 62.5864C4.98929 62.7664 5.03052 62.9533 5.34663 62.891C5.53217 62.8564 5.68336 62.7041 5.76582 62.531C5.84828 62.3579 5.87577 62.164 5.90326 61.9701C5.95823 61.5477 6.02695 61.1392 5.99947 60.7168L5.94449 60.0105C6.32932 59.8582 6.52173 59.1312 6.34306 58.4595C6.0888 57.4901 5.73833 57.0954 4.68692 56.4792Z" fill="#E8A488"/>
<path d="M0.384937 58.7438C0.659815 59.1177 0.99654 59.3946 1.40198 59.5816C1.77994 59.8447 2.206 59.9901 2.67329 60.0178H2.68017C2.83822 60.0317 2.99628 60.0386 3.15433 60.0317C3.62162 60.0247 4.0683 59.9278 4.5081 59.727C4.75549 59.5677 5.00288 59.4154 5.25027 59.2561C5.67633 58.9307 5.98557 58.4806 6.19173 57.989C6.24671 58.1344 6.30168 58.2868 6.34291 58.4599C6.51471 59.1315 6.32917 59.8655 5.94434 60.0109L5.99932 60.7172C6.03368 61.1395 5.96496 61.555 5.90311 61.9704C5.87562 62.1643 5.84813 62.3582 5.76567 62.5313C5.68321 62.7044 5.53202 62.8567 5.34648 62.8914C5.03037 62.9537 4.98914 62.7667 4.8036 62.5867C4.61805 62.3997 4.34318 62.3028 4.08204 62.3443C3.88276 62.379 3.66973 62.4898 3.47731 62.4205C3.22992 62.3305 3.14059 61.9981 2.88632 61.9289C2.5977 61.8527 2.30908 62.1851 2.02046 62.1089C1.8143 62.0535 1.71122 61.8181 1.51881 61.735C1.29203 61.6381 0.99654 61.7766 0.783509 61.645C0.694174 61.5896 0.639199 61.4996 0.584223 61.4165C0.0688272 60.5094 -0.130459 59.3531 0.096315 58.3214C0.178778 58.4737 0.274986 58.6122 0.384937 58.7438Z" fill="#E09078"/>
<path d="M17.2283 99.818C17.2558 100.074 17.4619 100.275 17.7231 100.282L19.3723 100.344C20.6986 98.8002 22.073 97.3045 23.5848 95.9474C22.9938 95.4973 22.231 94.7426 21.7912 94.3548C21.2277 93.8632 21.2621 90.2626 21.2621 90.2626L18.1354 89.9371C18.1354 89.9371 18.1903 93.2954 18.0529 93.6416C17.778 94.3271 17.5513 94.6525 17.297 95.3311C17.1664 95.6842 17.1458 96.0512 17.1183 96.4251C17.0496 97.263 17.084 98.1077 17.1596 98.9456C17.1664 99.2502 17.1939 99.5341 17.2283 99.818Z" fill="#C4C5C6"/>
<path d="M17.3314 95.0959C17.9705 95.7676 20.3963 97.9072 22.396 95.0405C22.506 94.8882 22.7121 94.8536 22.8564 94.9782C24.3339 96.2592 26.2718 98.0318 27.3301 97.6579C28.89 97.1109 29.6871 97.8587 29.7009 98.9666C29.7146 100.074 29.7146 100.074 29.7146 100.074C29.7146 100.074 26.526 101.508 23.7017 100.621C20.8773 99.7421 20.8773 99.7421 20.8773 99.7421L20.8636 100.04C20.8567 100.241 20.6849 100.4 20.4856 100.393L17.7231 100.289C17.4688 100.282 17.2558 100.081 17.2283 99.8252C17.139 98.9527 16.8022 96.6469 17.1733 95.179C17.1871 95.1028 17.2833 95.0405 17.3314 95.0959Z" fill="#414852"/>
<path d="M17.1252 99.0842C20.9666 98.9596 23.1656 100.531 25.6945 100.469C27.3644 100.428 29.0411 99.9082 29.7421 99.6658C29.9207 99.6035 30.1063 99.7281 30.1269 99.9151L30.1406 100.033C30.1475 100.137 30.0925 100.234 29.9963 100.275C26.5947 101.639 23.1931 100.808 22.286 100.573C21.5438 100.379 18.424 100.559 17.2626 100.635C17.0152 100.649 16.8091 100.462 16.7953 100.22L16.7541 99.4997C16.7335 99.2712 16.9053 99.0911 17.1252 99.0842Z" fill="#6B747D"/>
<path d="M3.3404 99.818C3.36789 100.074 3.57405 100.275 3.83518 100.282L5.48445 100.344C6.81073 98.8002 8.18512 97.3045 9.69695 95.9474C9.10596 95.4973 8.34318 94.7426 7.90337 94.3548C7.33987 93.8632 7.8484 90.2626 7.8484 90.2626L5.05839 89.9371C5.05839 89.9371 4.30247 93.2954 4.15816 93.6416C3.88328 94.3271 3.65651 94.6525 3.40225 95.3311C3.27168 95.6842 3.25107 96.0512 3.22358 96.4251C3.15486 97.263 3.18922 98.1077 3.26481 98.9456C3.28542 99.2502 3.31291 99.5341 3.3404 99.818Z" fill="#C4C5C6"/>
<path d="M3.45007 95.0959C4.08916 95.7676 6.51495 97.9072 8.51469 95.0405C8.62464 94.8882 8.8308 94.8536 8.97511 94.9782C10.4526 96.2592 12.3905 98.0318 13.4487 97.6579C15.0087 97.1109 15.8058 97.8587 15.8196 98.9666C15.8333 100.074 15.8333 100.074 15.8333 100.074C15.8333 100.074 12.6447 101.508 9.82036 100.621C6.99599 99.7421 6.99599 99.7421 6.99599 99.7421L6.98224 100.04C6.97537 100.241 6.80357 100.4 6.60429 100.393L3.84177 100.289C3.5875 100.282 3.37447 100.081 3.34699 99.8252C3.25765 98.9527 2.92093 96.6469 3.29201 95.179C3.30575 95.1028 3.39509 95.0405 3.45007 95.0959Z" fill="#414852"/>
<path d="M3.23714 99.0842C7.07856 98.9596 9.27758 100.531 11.8065 100.469C13.4763 100.428 15.1531 99.9082 15.854 99.6658C16.0327 99.6035 16.2182 99.7281 16.2389 99.9151L16.2526 100.033C16.2595 100.137 16.2045 100.234 16.1083 100.275C12.7067 101.639 9.30507 100.808 8.39797 100.573C7.65581 100.379 4.53594 100.559 3.37458 100.635C3.12719 100.649 2.92103 100.462 2.90729 100.22L2.86606 99.4997C2.84544 99.2712 3.01724 99.0911 3.23714 99.0842Z" fill="#6B747D"/>
<path d="M11.9161 53.301L14.2182 57.1163L12.5895 57.2963L10.3561 53.301H11.9161Z" fill="#3E4142"/>
<path d="M8.3634 52.7887L8.50084 58.7297C8.50084 58.7297 23.7497 59.3113 24.54 57.4279C25.1447 55.9877 24.6843 53.2249 24.6843 53.2249L8.3634 52.7887Z" fill="#373E48"/>
<path d="M19.056 58.6118C19.0766 58.688 19.6608 68.8112 16.6852 90.9272C16.6371 91.2872 16.8158 91.6334 17.1731 91.6819L21.8392 92.0558C22.2515 92.0904 22.6913 91.8342 22.7531 91.4257C25.9074 69.3859 24.8285 58.0786 24.7529 56.6315L19.056 58.6118Z" fill="#373E48"/>
<path d="M8.46636 55.2053C8.48698 55.2815 9.3872 71.6296 3.11312 91.0036C2.98942 91.3844 3.23681 91.786 3.62851 91.8206L8.47324 92.2638C8.81683 92.2984 9.13981 92.0838 9.24976 91.7514C17.07 68.2783 13.9364 56.8879 13.6753 55.9739L8.46636 55.2053Z" fill="#373E48"/>
<g opacity="0.1">
<path opacity="0.1" d="M22.4645 71.8581C21.2001 72.6475 19.8188 72.6059 18.6781 72.0174C18.3345 76.9059 17.7297 83.1792 16.6852 90.9274C16.6371 91.2875 16.8158 91.6337 17.1731 91.6822L21.8392 92.0561C22.2515 92.0907 22.6913 91.8345 22.7531 91.426C24.0794 82.1752 24.6567 74.8286 24.8766 69.2961C24.2443 70.3279 23.4541 71.2418 22.4645 71.8581Z" fill="#010101"/>
</g>
<g opacity="0.1">
<path opacity="0.1" d="M11.6206 72.0379C10.2668 72.4326 8.64503 72.4464 7.51803 71.5671C6.74838 77.2034 5.41522 83.8991 3.11312 91.0034C2.98942 91.3842 3.23681 91.7858 3.62851 91.8204L8.47323 92.2636C8.81683 92.2982 9.13981 92.0835 9.24976 91.7512C12.2184 82.8328 13.6134 75.6662 14.1769 70.1476C13.5516 71.027 12.6995 71.7194 11.6206 72.0379Z" fill="#010101"/>
</g>
<path opacity="0.14" d="M8.3634 52.7887L8.52833 57.8849C10.9747 59.3598 21.4132 59.2628 24.8011 56.2923C24.9385 54.6929 24.7393 53.0241 24.6843 53.2249L8.3634 52.7887Z" fill="#010101"/>
<path d="M25.557 50.8225L24.9935 54.7555C24.9935 54.7555 21.64 55.6279 16.6785 55.6279C12.2735 55.6279 8.35652 55.1155 8.35652 55.1155L7.26389 50.8225H25.557Z" fill="#F4BF7A"/>
<path d="M10.2189 27.7092V23.7486C13.4075 22.8 17.7643 22.8069 20.8498 24.1087V27.7162H10.2189V27.7092Z" fill="#E09078"/>
<path d="M18.6095 54.0421C17.9704 54.0629 17.3038 54.0767 16.6029 54.0767C16.0531 54.0767 15.4827 54.0629 14.9055 54.0421H18.6095Z" fill="#D58A74"/>
<path d="M6.06135 27.2454C6.18505 25.5559 8.08858 24.3026 10.6381 23.631C10.803 24.0187 11.0229 24.3926 11.3046 24.7458C12.2049 25.9021 13.5655 26.6153 15.0155 26.733C17.1595 26.9131 19.9221 25.6182 20.6093 23.7002C21.4957 23.8526 23.0007 24.6073 23.8322 25.4244C27.5568 29.0942 26.3886 47.2911 26.1824 52.0272C26.1549 52.7058 25.667 53.2667 25.0004 53.3913C23.5023 53.6614 20.568 54.0768 16.6029 54.0768C13.5999 54.0768 9.98523 53.6821 8.15042 53.4536C7.46323 53.3705 6.94096 52.8028 6.89973 52.1103C6.65234 47.5196 5.7796 31.0122 6.06135 27.2454Z" fill="#FFCC05"/>
<path opacity="0.07" d="M10.1501 43.0811C12.9263 45.9062 16.809 47.4018 20.6092 45.733C23.2755 44.5628 25.3233 42.0909 26.4984 39.3766C26.5809 44.6321 26.2717 49.8114 26.1754 52.0341C26.148 52.7127 25.66 53.2735 24.9935 53.3982C23.4954 53.6682 20.5611 54.0837 16.596 54.0837C13.5929 54.0837 9.97827 53.689 8.14346 53.4605C7.45626 53.3774 6.93399 52.8096 6.89276 52.1172C6.74158 49.4306 6.38424 42.6656 6.16434 36.7523C6.934 39.1966 8.75506 41.6616 10.1501 43.0811Z" fill="#FFF9E1"/>
<path d="M8.98206 4.18726C8.98893 4.2288 8.9958 4.26342 8.9958 4.30497C8.98893 4.27035 8.98893 4.2288 8.98206 4.18726Z" fill="#482416"/>
<path d="M4.85856 54.7342L4.87917 56.396H1.16832L0.536102 54.4503L4.85856 54.7342Z" fill="#F4BF7A"/>
<path d="M4.97575 55.3575C5.32621 55.3714 5.62171 55.0875 5.62858 54.7343C5.67668 52.844 5.81412 47.18 5.88284 42.7277C5.93782 38.7671 8.34987 32.7014 9.44251 30.5342L10.0747 23.7C9.88919 24.06 1.34736 23.97 0.268464 42.6931C0.0142016 47.0692 0.000457764 52.5948 0.000457764 54.5128C0.000457764 54.9005 0.302823 55.2121 0.687652 55.226L4.97575 55.3575Z" fill="#FFCA05"/>
<path d="M19.1867 23.2084C19.1867 23.2084 18.8019 26.0335 15.5377 26.0335C12.2736 26.0335 11.5451 23.2084 11.5451 23.2084L9.72406 23.7C9.72406 23.7 10.8098 27.8199 15.5377 27.7091C20.2588 27.5914 20.8497 23.7346 20.8497 23.7346L19.1867 23.2084Z" fill="#E7B26B"/>
<path d="M17.7229 23.7347C17.7229 23.8662 17.6886 23.9978 17.6404 24.1155C16.7265 24.247 15.7644 24.3094 14.9192 24.4686C14.5068 24.5448 14.1014 24.621 13.6959 24.704C13.2905 24.3371 13.0088 23.8662 13.0156 23.4231L13.3798 19.13C13.3867 18.2507 14.2045 17.5375 15.194 17.5375H15.6545C16.644 17.5375 17.4412 18.2576 17.4343 19.137L17.7229 23.7347Z" fill="#E09078"/>
<path d="M22.7121 11.984C23.42 12.0671 23.9079 12.9049 23.7979 13.8674C23.688 14.8299 23.0283 15.5431 22.3204 15.46C21.6126 15.3769 21.1247 14.539 21.2347 13.5766C21.3446 12.6141 22.0043 11.9009 22.7121 11.984Z" fill="#E09078"/>
<path d="M14.2113 4.45067L16.5821 4.33988C19.7089 4.19447 22.4164 7.55964 22.5607 10.7102L22.76 15.0309C22.9043 18.1814 20.4716 20.8819 17.3449 21.0273L14.9741 21.1381C11.8473 21.2835 9.16729 18.8323 9.02298 15.6818L8.82369 11.361C8.67251 8.21052 11.0846 4.59607 14.2113 4.45067Z" fill="#E5A286"/>
<path d="M7.27782 4.7415C7.6008 4.64456 7.84132 4.72765 8.02686 4.81767C7.7726 4.30527 7.56644 3.75826 7.63516 3.1697C8.08184 3.142 8.52164 3.50206 8.58349 3.95214C8.48728 3.57823 8.54913 3.1697 8.75529 2.84426C8.78277 2.80271 8.81026 2.76809 8.85149 2.74732C8.93396 2.71962 9.00955 2.78887 9.06452 2.85811C9.20196 3.03121 9.2913 3.75826 9.2913 3.75826C9.50433 3.5713 9.99224 2.39419 11.4834 1.5702C13.3595 0.538492 16.0121 0.213053 16.0258 0.28922C16.0877 0.60081 16.0533 0.974719 15.9021 1.31401C17.0497 0.143811 18.6165 -0.0362186 20.252 0.00532677C20.3551 0.884704 20.0871 1.47326 20.0871 1.47326C20.0871 1.47326 21.6608 0.787764 21.6745 0.815461C22.1556 1.61175 22.8153 3.10046 22.3892 3.87597C22.5198 3.71671 22.6985 3.59208 22.8909 3.53668C23.2345 4.15294 23.2963 4.89383 23.2551 5.60703C23.1658 7.36578 22.8977 8.56367 22.6641 9.33918C22.8153 10.8417 22.6023 12.0396 22.6091 12.102C22.6091 12.102 22.6091 11.9981 22.5954 11.8458L22.6091 12.102C22.5473 12.1089 21.6677 8.16207 20.1765 7.27577C18.2661 6.14019 18.5341 7.85048 16.067 7.61505C14.4246 7.45579 12.0469 6.29945 10.8237 9.0276C10.4595 9.84465 10.7413 11.4026 10.4733 12.192C10.2465 12.8705 9.62115 13.1821 8.89272 13.3483C8.89272 13.3483 8.59723 11.5688 8.63846 10.6686C7.80009 9.08991 7.38777 6.84646 7.70388 5.41315C7.71762 5.33698 7.68326 5.33698 7.68326 5.33698C7.68326 5.33698 7.18848 4.92845 7.27782 4.7415Z" fill="#582D1B"/>
<path opacity="0.07" d="M10.2534 7.76748C11.0025 6.83964 11.8821 5.72484 13.1671 5.79408C14.1911 5.84255 14.9882 6.52804 15.7029 6.63191C17.3453 6.86733 17.8401 5.64867 19.345 5.56558C21.3104 5.46171 22.0938 7.81595 22.6917 9.45007C22.8222 10.9042 22.6229 12.0397 22.6298 12.102C22.6298 12.102 22.6298 11.9982 22.6161 11.8459L22.6298 12.102C22.568 12.109 21.6884 8.16216 20.1971 7.27586C18.2867 6.14029 18.5548 7.85057 16.0877 7.61515C14.4453 7.45589 12.0676 6.29955 10.8444 9.02769C10.4802 9.84475 10.762 11.4027 10.494 12.1921C10.2672 12.8706 9.64184 13.1822 8.91341 13.3484L8.8172 12.7114C8.8172 12.7114 8.63166 11.8389 8.65915 10.6687C8.65915 10.6687 9.58686 8.59147 10.2534 7.76748Z" fill="#010101"/>
<path d="M8.04719 12.4066C8.72064 12.1712 9.51092 12.7251 9.82015 13.6322C10.1294 14.5393 9.8339 15.4671 9.16732 15.6956C8.49387 15.9311 7.70359 15.3771 7.39436 14.47C7.07825 13.563 7.37374 12.642 8.04719 12.4066Z" fill="#E5A286"/>
<path d="M8.94058 14.5601C9.13987 14.5739 9.32541 14.5601 9.51096 14.5324C10.1844 18.0568 12.514 20.4664 16.3554 20.3903C20.6985 20.3002 21.7568 18.1053 22.7257 15.9241C22.4233 18.673 20.1693 20.8888 17.345 21.0204L14.9742 21.1311C11.8612 21.2766 9.20172 18.8462 9.02992 15.7233C8.39083 15.841 7.68302 15.3148 7.3944 14.47C7.27757 14.1238 7.25009 13.7707 7.29132 13.4591C7.59368 14.0615 8.30837 14.5185 8.94058 14.5601Z" fill="#E09078"/>
<path d="M14.0463 15.9725L18.7467 15.7579C19.0216 15.744 19.2209 16.0625 19.1178 16.3534C18.6436 17.7244 17.6472 18.7007 16.4721 18.7561C15.297 18.8115 14.2456 17.9321 13.7027 16.6026C13.5859 16.3187 13.7646 15.9864 14.0463 15.9725Z" fill="white"/>
<path d="M19.5098 11.3471C19.9427 11.2155 20.4306 11.7002 20.5887 12.4273C20.7467 13.1543 20.5268 13.8467 20.087 13.9783C19.6541 14.1099 19.1662 13.6252 19.0081 12.8981C18.8501 12.1711 19.0768 11.4787 19.5098 11.3471Z" fill="#3E1E16"/>
<path d="M12.6241 11.5685C13.057 11.43 13.5449 11.9147 13.7167 12.6556C13.8885 13.3965 13.6755 14.1097 13.2357 14.2482C12.8028 14.3867 12.3149 13.902 12.1431 13.1611C11.9781 12.4202 12.1912 11.707 12.6241 11.5685Z" fill="#3E1E16"/>
<path opacity="0.08" d="M20.5888 12.4274C20.7468 13.1544 20.5269 13.8469 20.0871 13.9784C19.7023 14.0892 19.2831 13.7361 19.0838 13.1544C19.2694 12.9675 20.094 12.0466 20.3002 11.7557C20.4307 11.9358 20.5338 12.1643 20.5888 12.4274Z" fill="white"/>
<path opacity="0.08" d="M13.7166 12.6557C13.8884 13.3966 13.6754 14.1098 13.2356 14.2483C12.8851 14.3591 12.5003 14.0613 12.2735 13.542C12.6721 13.0504 13.0638 12.5518 13.4761 12.0671C13.5792 12.2402 13.6616 12.4341 13.7166 12.6557Z" fill="white"/>
<path d="M9.56613 4.11829C9.573 4.15983 9.57988 4.19445 9.57988 4.236C9.573 4.19445 9.573 4.15983 9.56613 4.11829Z" fill="#482416"/>
<path opacity="0.1" d="M22.2587 2.00654C22.513 2.68511 22.6504 3.41216 22.3961 3.883C22.4786 3.77914 22.5886 3.69605 22.7054 3.62681C22.6848 3.7376 22.6504 3.84838 22.5954 3.94532C22.6985 3.82761 22.8222 3.73067 22.9596 3.66143C23.2483 4.25691 23.3032 4.94241 23.2689 5.60714C23.2551 5.84256 23.2414 6.06414 23.2208 6.27879C21.4409 4.58928 16.5756 1.66725 7.75202 7.94753C7.71079 7.72595 7.68331 7.50438 7.66269 7.2828C9.3257 5.56559 14.8026 0.697859 22.2587 2.00654Z" fill="white"/>
<path d="M41.8778 26.1373C41.7953 26.6289 42.2145 27.0443 42.7024 26.9682C42.9979 26.9197 43.2384 26.6774 43.2865 26.3796C43.369 25.888 42.9498 25.4726 42.4619 25.5487C42.1595 25.5972 41.9259 25.8395 41.8778 26.1373Z" fill="#FFCC05"/>
<path d="M42.3381 26.234L42.558 26.4972L42.6886 26.1786C42.8604 25.7632 44.3172 22.1141 42.7092 21.2832C42.235 21.0339 41.7883 21.117 41.4791 21.4979C40.7713 22.3772 40.9912 24.593 42.3381 26.234ZM41.7952 21.761C41.9464 21.574 42.1251 21.5186 42.3518 21.5879C42.4068 21.6017 42.4549 21.6294 42.5168 21.6571C43.4926 22.1626 42.8741 24.4891 42.4343 25.687C41.3623 24.1637 41.3142 22.3565 41.7952 21.761Z" fill="#FFCC05"/>
<path d="M42.5375 26.0262L42.8743 26.0885C43.1766 26.1439 43.4859 26.1716 43.7814 26.1716C45.2726 26.1716 46.5783 25.5 46.8875 24.7244C47.0524 24.309 46.9218 23.9212 46.5233 23.6512C45.1832 22.7441 42.998 25.4446 42.7506 25.7561L42.5375 26.0262ZM43.3072 25.7354C43.9325 25.0083 45.0939 23.8797 45.9048 23.8797C46.0491 23.8797 46.1797 23.9143 46.2965 23.9974C46.5301 24.1566 46.6057 24.3436 46.5095 24.5721C46.2553 25.1884 44.8946 25.9016 43.3072 25.7354Z" fill="#FFCC05"/>
<path d="M35.5625 37.9774H48.3031C51.4505 37.9774 54 35.4086 54 32.2373C54 29.066 51.4505 26.4971 48.3031 26.4971H35.5625C32.4152 26.4971 29.8657 29.066 29.8657 32.2373C29.8657 35.4086 32.4152 37.9774 35.5625 37.9774Z" fill="#818181"/>
<path d="M31.4462 26.4971H38.9916V37.9774H31.4462C30.5735 37.9774 29.8657 37.2642 29.8657 36.3849V28.0896C29.8657 27.2103 30.5735 26.4971 31.4462 26.4971Z" fill="#676767"/>
<path d="M45.7743 26.4971H46.3721C49.5882 30.16 47.6159 36.5787 47.1349 37.9774H46.6676C46.9975 37.0357 49.2996 30.0561 45.8017 26.5317C45.788 26.5178 45.7811 26.5109 45.7743 26.4971Z" fill="#FFCC05"/>
<path d="M34.6418 37.9359C34.6418 37.9497 34.6486 37.9636 34.6486 37.9774H34.2088C32.91 31.434 34.3463 27.9789 35.3083 26.4971H35.8512C34.9716 27.7365 33.2811 31.1432 34.6418 37.9359Z" fill="#FFCC05"/>
</svg>
