<svg width="68" height="49" viewBox="0 0 68 49" fill="none" xmlns="http://www.w3.org/2000/svg">
<path d="M67.1845 49H0.783222C0.350459 49 0 48.6527 0 48.2238V2C0 0.895428 0.895431 0 2 0H65.9677C67.0723 0 67.9677 0.895431 67.9677 2V48.2238C67.9677 48.6527 67.6173 49 67.1845 49Z" fill="#FFC473"/>
<path d="M65.9678 0H35.9839C34.8793 0 33.9839 0.89543 33.9839 2V49H65.9678C67.0723 49 67.9678 48.1046 67.9678 47V2C67.9678 0.895431 67.0723 0 65.9678 0Z" fill="#FFB74F"/>
<path d="M33.9733 18.8914C33.9733 18.8914 27.4399 24.7995 27.4399 24.1187V0H40.5066V24.1187C40.5066 24.7995 33.9733 18.8914 33.9733 18.8914Z" fill="#898989"/>
<path d="M33.9734 18.8914V0H40.5067V24.1187C40.5067 24.7995 33.9734 18.8914 33.9734 18.8914Z" fill="#666666"/>
</svg>
