<svg width="206" height="24" viewBox="0 0 206 24" fill="none" xmlns="http://www.w3.org/2000/svg">
<path d="M1.05078 0.5H0.0507812V23.5H1.05078V0.5Z" fill="white"/>
<path d="M30.1132 17.2765C28.8786 18.0214 27.106 18.3939 24.7954 18.3939C23.499 18.3939 22.2379 18.2697 21.0033 18.0303C19.7775 17.782 18.6839 17.445 17.7227 17.0016L18.7546 14.4211C19.6629 14.8467 20.6593 15.1837 21.7264 15.4143C22.8023 15.6537 23.8606 15.769 24.9101 15.769C26.1447 15.769 27.0971 15.6448 27.7586 15.3877C28.42 15.1305 28.7463 14.758 28.7463 14.2703C28.7463 13.9156 28.5964 13.6496 28.2878 13.4722C27.979 13.286 27.4411 13.1441 26.665 13.0288L23.111 12.5411C21.453 12.3194 20.236 11.9026 19.46 11.2996C18.6839 10.6965 18.2959 9.86296 18.2959 8.79883C18.2959 7.46864 18.8956 6.42223 20.0861 5.65959C21.2767 4.89695 22.8993 4.51562 24.963 4.51562C26.1712 4.51562 27.3529 4.62204 28.4993 4.84374C29.6458 5.06544 30.66 5.37581 31.5507 5.77487L30.5189 8.22242C29.6458 7.85883 28.7286 7.58393 27.7762 7.40657C26.8238 7.22921 25.836 7.13166 24.813 7.13166C23.7548 7.13166 22.9346 7.25581 22.3614 7.49525C21.7882 7.74355 21.4972 8.09827 21.4972 8.5594C21.4972 8.89638 21.6647 9.15355 21.9998 9.33091C22.3349 9.50824 22.9346 9.65899 23.7989 9.78315L27.2471 10.2709C28.8962 10.5103 30.0868 10.9271 30.8364 11.5301C31.586 12.1331 31.9564 12.9756 31.9564 14.0486C31.9652 15.4497 31.3479 16.5316 30.1132 17.2765Z" fill="white"/>
<path d="M33.6686 10.209V7.79688H44.2425V9.88972L37.7077 15.7426H44.5952V18.1369H33.4746V16.0707L40.0094 10.2178H33.6686V10.209Z" fill="white"/>
<path d="M46.1739 22.1253V19.6246H48.7932C49.2694 19.6246 49.6486 19.5182 49.9396 19.2965C50.2307 19.0748 50.451 18.7467 50.5833 18.3121L45.2656 7.8125H48.8019L52.206 15.3946L55.5396 7.8125H58.8555L53.035 19.5536C52.5235 20.5823 51.9768 21.2652 51.3859 21.611C50.7951 21.9568 49.8866 22.1253 48.6344 22.1253H46.1739Z" fill="white"/>
<path d="M59.9316 18.1281V4.05469H62.9477V9.02073C63.4504 8.53299 64.0412 8.16054 64.7379 7.91223C65.4346 7.66393 66.1842 7.53978 67.0132 7.53978C68.7505 7.53978 70.1616 8.04525 71.2639 9.04733C72.3575 10.0494 72.9131 11.3618 72.9131 12.9847C72.9131 14.5898 72.3663 15.8934 71.2639 16.8954C70.1704 17.8975 68.7505 18.403 67.0132 18.403C66.1666 18.403 65.3817 18.27 64.6762 18.0039C63.9619 17.7379 63.3622 17.3654 62.8771 16.8777V18.1369H59.9316V18.1281ZM68.9005 15.1218C69.5178 14.5809 69.8264 13.8715 69.8264 12.9758C69.8264 12.0801 69.5178 11.3707 68.8916 10.8209C68.2655 10.2711 67.4542 10.0051 66.44 10.0051C65.3905 10.0051 64.5439 10.28 63.9001 10.8209C63.2564 11.3707 62.9389 12.089 62.9389 12.9758C62.9389 13.8626 63.2564 14.5809 63.9001 15.1218C64.5439 15.6628 65.3905 15.9288 66.44 15.9288C67.463 15.9288 68.2831 15.6628 68.9005 15.1218Z" fill="white"/>
<path d="M77.6489 15.6096V18.1281H74.6328V4.05469H77.6489V12.4083L83.1695 7.79695H87.0763L82.0671 11.9737L87.235 18.1281H83.3459L79.8448 13.7473L77.6489 15.6096Z" fill="white"/>
<path d="M88.9978 6.22329C88.6626 5.90404 88.5039 5.49612 88.5039 5.00838C88.5039 4.52065 88.6715 4.11272 88.9978 3.78461C89.3241 3.4565 89.7562 3.29688 90.2765 3.29688C90.7968 3.29688 91.2289 3.4565 91.5552 3.78461C91.8815 4.11272 92.0491 4.52065 92.0491 5.00838C92.0491 5.48725 91.8815 5.88631 91.5552 6.21442C91.2201 6.54254 90.7968 6.70216 90.2765 6.70216C89.7562 6.70216 89.3329 6.54254 88.9978 6.22329ZM88.7685 18.124V7.79291H91.7845V18.124H88.7685Z" fill="white"/>
<path d="M94.8887 16.9668C93.7246 16.0179 93.1426 14.6877 93.1426 12.9939C93.1426 11.3888 93.7511 10.0764 94.9593 9.05653C96.1675 8.03672 97.7372 7.53125 99.6597 7.53125C101.547 7.53125 103.073 7.98351 104.237 8.88804C105.401 9.79261 105.983 10.9543 105.983 12.3732C105.983 12.4973 105.983 12.6215 105.974 12.7456C105.965 12.8698 105.956 13.1624 105.93 13.6324H96.238C96.335 14.3596 96.7231 14.9271 97.3933 15.3262C98.0635 15.7253 98.9454 15.9292 100.039 15.9292C100.824 15.9292 101.582 15.8139 102.314 15.5745C103.046 15.3351 103.646 15.007 104.122 14.599L105.727 16.4258C105.18 17.0377 104.369 17.5254 103.302 17.8713C102.235 18.226 101.053 18.3945 99.7568 18.3945C97.6755 18.3945 96.0528 17.9156 94.8887 16.9668ZM97.4638 10.3247C96.8642 10.6617 96.4849 11.1317 96.3262 11.7347H102.799C102.702 11.1405 102.376 10.6794 101.829 10.3336C101.282 9.98771 100.568 9.81922 99.695 9.81922C98.8043 9.81035 98.0635 9.97884 97.4638 10.3247Z" fill="white"/>
<path d="M123.903 13.9619V4.96094H126.919V18.3249H123.939L115.067 9.30622V18.3249H112.051V4.96094H115.067L123.903 13.9619Z" fill="white"/>
<path d="M130.376 17.1188C129.291 16.1433 128.744 14.822 128.744 13.1637C128.744 11.532 129.3 10.2195 130.402 9.21743C131.504 8.22422 132.951 7.71875 134.732 7.71875C135.552 7.71875 136.311 7.86064 137.007 8.13554C137.704 8.41045 138.295 8.80951 138.798 9.32385V7.99366H141.699V18.3248H138.798V16.9857C138.295 17.5001 137.704 17.8991 137.007 18.174C136.311 18.4489 135.561 18.5908 134.732 18.5908C132.915 18.5908 131.46 18.0942 130.376 17.1188ZM137.757 15.3186C138.383 14.7865 138.701 14.0682 138.701 13.1637C138.701 12.2503 138.383 11.5231 137.757 10.991C137.122 10.4589 136.275 10.1929 135.2 10.1929C134.177 10.1929 133.356 10.4589 132.739 10.9999C132.122 11.5408 131.813 12.2591 131.813 13.1637C131.813 14.0504 132.122 14.7688 132.739 15.3097C133.356 15.8506 134.177 16.1167 135.2 16.1167C136.275 16.1255 137.131 15.8595 137.757 15.3186Z" fill="white"/>
<path d="M145.087 17.1195C144.002 16.144 143.455 14.8227 143.455 13.1644C143.455 11.5327 144.011 10.2202 145.113 9.21815C146.215 8.22494 147.662 7.71947 149.443 7.71947C150.237 7.71947 150.978 7.84362 151.657 8.10079C152.336 8.35796 152.918 8.73041 153.403 9.21815V4.23438H156.401V18.3078H153.5V16.9687C152.997 17.4831 152.406 17.8821 151.71 18.157C151.013 18.4319 150.263 18.5738 149.434 18.5738C147.626 18.5915 146.171 18.0949 145.087 17.1195ZM152.459 15.3193C153.094 14.7872 153.412 14.0689 153.412 13.1644C153.412 12.2598 153.094 11.5415 152.459 11.0006C151.824 10.4597 150.978 10.1936 149.911 10.1936C148.87 10.1936 148.05 10.4597 147.441 11.0006C146.833 11.5415 146.524 12.2598 146.524 13.1644C146.524 14.0689 146.833 14.7872 147.441 15.3193C148.05 15.8514 148.879 16.1174 149.911 16.1174C150.978 16.1263 151.824 15.8602 152.459 15.3193Z" fill="white"/>
<path d="M159.796 17.1188C158.711 16.1433 158.164 14.822 158.164 13.1637C158.164 11.532 158.72 10.2195 159.822 9.21743C160.924 8.21536 162.371 7.71875 164.152 7.71875C164.972 7.71875 165.731 7.86064 166.427 8.13554C167.124 8.41045 167.715 8.80951 168.218 9.32385V7.99366H171.119V18.3248H168.218V16.9857C167.715 17.5001 167.124 17.8991 166.427 18.174C165.731 18.4489 164.981 18.5908 164.152 18.5908C162.335 18.5908 160.88 18.0942 159.796 17.1188ZM167.177 15.3186C167.803 14.7865 168.121 14.0682 168.121 13.1637C168.121 12.2503 167.803 11.5231 167.177 10.991C166.542 10.4589 165.695 10.1929 164.619 10.1929C163.597 10.1929 162.776 10.4589 162.159 10.9999C161.542 11.5408 161.233 12.2591 161.233 13.1637C161.233 14.0504 161.542 14.7688 162.159 15.3097C162.776 15.8506 163.597 16.1167 164.619 16.1167C165.695 16.1255 166.551 15.8595 167.177 15.3186Z" fill="white"/>
<path d="M173.457 18.3315V8.00041H176.394V9.56117C176.755 8.99362 177.285 8.55022 177.981 8.22211C178.678 7.894 179.489 7.73438 180.398 7.73438C181.147 7.73438 181.817 7.84079 182.408 8.04475C182.999 8.24871 183.519 8.55909 183.969 8.97588C184.428 9.41928 184.763 9.96909 184.975 10.6431C185.177 11.317 185.283 12.1949 185.283 13.2857V18.3315H182.267V13.2148C182.267 12.6206 182.197 12.1417 182.064 11.7693C181.923 11.3968 181.712 11.0953 181.429 10.8648C181.191 10.6785 180.918 10.5366 180.618 10.4391C180.309 10.3415 179.983 10.2972 179.639 10.2972C178.925 10.2972 178.307 10.4657 177.778 10.7938C177.249 11.1308 176.879 11.5831 176.667 12.1595C176.605 12.3368 176.561 12.5319 176.526 12.7536C176.491 12.9753 176.482 13.2148 176.482 13.4808V18.3404H173.457V18.3315Z" fill="white"/>
<path d="M187.672 6.42642C187.336 6.10717 187.178 5.69925 187.178 5.21151C187.178 4.72377 187.345 4.31585 187.672 3.98774C187.998 3.65962 188.43 3.5 188.95 3.5C189.471 3.5 189.903 3.65962 190.229 3.98774C190.555 4.31585 190.723 4.72377 190.723 5.21151C190.723 5.69038 190.555 6.08943 190.229 6.41755C189.894 6.74566 189.471 6.90528 188.95 6.90528C188.43 6.90528 188.007 6.74566 187.672 6.42642ZM187.442 18.3272V7.99604H190.458V18.3272H187.442Z" fill="white"/>
<path d="M193.819 17.1188C192.734 16.1433 192.188 14.822 192.188 13.1637C192.188 11.532 192.743 10.2195 193.845 9.21743C194.948 8.22422 196.394 7.71875 198.176 7.71875C198.996 7.71875 199.754 7.86064 200.451 8.13554C201.148 8.41045 201.738 8.80951 202.241 9.32385V7.99366H205.142V18.3248H202.241V16.9857C201.738 17.5001 201.148 17.8991 200.451 18.174C199.754 18.4489 199.005 18.5908 198.176 18.5908C196.359 18.5908 194.904 18.0942 193.819 17.1188ZM201.2 15.3186C201.827 14.7865 202.144 14.0682 202.144 13.1637C202.144 12.2503 201.827 11.5231 201.2 10.991C200.565 10.4589 199.719 10.1929 198.643 10.1929C197.62 10.1929 196.8 10.4589 196.182 10.9999C195.565 11.5408 195.256 12.2591 195.256 13.1637C195.256 14.0504 195.565 14.7688 196.182 15.3097C196.8 15.8506 197.62 16.1167 198.643 16.1167C199.719 16.1255 200.574 15.8595 201.2 15.3186Z" fill="white"/>
</svg>
